<?xml version="1.0" encoding="UTF-8"?><svg xmlns="http://www.w3.org/2000/svg" xmlns:xlink="http://www.w3.org/1999/xlink" fill-opacity="1" color-rendering="auto" color-interpolation="auto" text-rendering="auto" stroke="black" stroke-linecap="square" width="771" stroke-miterlimit="10" shape-rendering="auto" stroke-opacity="1" fill="black" stroke-dasharray="none" font-weight="normal" stroke-width="1" height="230" font-family="'Dialog'" font-style="normal" stroke-linejoin="miter" font-size="12px" stroke-dashoffset="0" image-rendering="auto">
  <!--Generated by ySVG 2.6-->
  <defs id="genericDefs"/>
  <g>
    <defs id="defs1">
      <linearGradient x1="476.2869" gradientUnits="userSpaceOnUse" x2="556.2869" y1="0" y2="40" id="linearGradient1" spreadMethod="reflect">
        <stop stop-opacity="1" stop-color="rgb(0,153,153)" offset="0%"/>
        <stop stop-opacity="1" stop-color="rgb(0,153,153)" offset="100%"/>
      </linearGradient>
      <linearGradient x1="440.929" gradientUnits="userSpaceOnUse" x2="591.6448" y1="74" y2="111.9057" id="linearGradient2" spreadMethod="reflect">
        <stop stop-opacity="1" stop-color="rgb(39,43,52)" offset="0%"/>
        <stop stop-opacity="1" stop-color="rgb(39,43,52)" offset="100%"/>
      </linearGradient>
      <linearGradient x1="300.4781" gradientUnits="userSpaceOnUse" x2="422.5473" y1="159.9682" y2="199.9682" id="linearGradient3" spreadMethod="reflect">
        <stop stop-opacity="1" stop-color="rgb(39,43,52)" offset="0%"/>
        <stop stop-opacity="1" stop-color="rgb(39,43,52)" offset="100%"/>
      </linearGradient>
      <linearGradient x1="452.5475" gradientUnits="userSpaceOnUse" x2="580.0264" y1="159.9682" y2="199.9682" id="linearGradient4" spreadMethod="reflect">
        <stop stop-opacity="1" stop-color="rgb(39,43,52)" offset="0%"/>
        <stop stop-opacity="1" stop-color="rgb(39,43,52)" offset="100%"/>
      </linearGradient>
      <linearGradient x1="146.7333" gradientUnits="userSpaceOnUse" x2="270.4778" y1="159.9682" y2="199.9682" id="linearGradient5" spreadMethod="reflect">
        <stop stop-opacity="1" stop-color="rgb(39,43,52)" offset="0%"/>
        <stop stop-opacity="1" stop-color="rgb(39,43,52)" offset="100%"/>
      </linearGradient>
      <linearGradient x1="610.0267" gradientUnits="userSpaceOnUse" x2="750.3472" y1="159.9682" y2="199.9682" id="linearGradient6" spreadMethod="reflect">
        <stop stop-opacity="1" stop-color="rgb(39,43,52)" offset="0%"/>
        <stop stop-opacity="1" stop-color="rgb(39,43,52)" offset="100%"/>
      </linearGradient>
      <linearGradient x1="10" gradientUnits="userSpaceOnUse" x2="116.7333" y1="159.9682" y2="199.9682" id="linearGradient7" spreadMethod="reflect">
        <stop stop-opacity="1" stop-color="rgb(39,43,52)" offset="0%"/>
        <stop stop-opacity="1" stop-color="rgb(39,43,52)" offset="100%"/>
      </linearGradient>
      <clipPath clipPathUnits="userSpaceOnUse" id="clipPath1">
        <path d="M0 0 L771 0 L771 230 L0 230 L0 0 Z"/>
      </clipPath>
      <clipPath clipPathUnits="userSpaceOnUse" id="clipPath2">
        <path d="M-5 -15 L766 -15 L766 215 L-5 215 L-5 -15 Z"/>
      </clipPath>
    </defs>
    <g fill="url(#linearGradient1)" text-rendering="geometricPrecision" shape-rendering="geometricPrecision" transform="matrix(1,0,0,1,5,15)" stroke="url(#linearGradient1)">
      <circle r="20" clip-path="url(#clipPath2)" cx="516.2869" cy="20" stroke="none"/>
    </g>
    <g text-rendering="geometricPrecision" stroke-miterlimit="1.45" shape-rendering="geometricPrecision" transform="matrix(1,0,0,1,5,15)" stroke-linecap="butt">
      <circle fill="none" r="20" clip-path="url(#clipPath2)" cx="516.2869" cy="20"/>
      <text x="503.5135" y="24.1016" clip-path="url(#clipPath2)" fill="white" font-family="'Roboto'" stroke="none" xml:space="preserve">Start</text>
    </g>
    <g fill="url(#linearGradient2)" text-rendering="geometricPrecision" shape-rendering="geometricPrecision" transform="matrix(1,0,0,1,5,15)" stroke="url(#linearGradient2)">
      <path d="M516.2869 74 L591.6448 92.9529 L516.2869 111.9057 L440.929 92.9529 Z" stroke="none" clip-path="url(#clipPath2)"/>
    </g>
    <g stroke-linecap="butt" transform="matrix(1,0,0,1,5,15)" fill="rgb(0,153,153)" text-rendering="geometricPrecision" shape-rendering="geometricPrecision" stroke="rgb(0,153,153)" stroke-miterlimit="1.45">
      <path fill="none" d="M516.2869 74 L591.6448 92.9529 L516.2869 111.9057 L440.929 92.9529 Z" clip-path="url(#clipPath2)"/>
      <text x="470.6394" y="97.0544" clip-path="url(#clipPath2)" fill="white" font-family="'Roboto'" stroke="none" xml:space="preserve">Match block type</text>
    </g>
    <g fill="url(#linearGradient3)" text-rendering="geometricPrecision" shape-rendering="geometricPrecision" transform="matrix(1,0,0,1,5,15)" stroke="url(#linearGradient3)">
      <path d="M310.6781 159.9682 L422.5473 159.9682 L412.3473 199.9682 L300.4781 199.9682 Z" stroke="none" clip-path="url(#clipPath2)"/>
    </g>
    <g stroke-linecap="butt" transform="matrix(1,0,0,1,5,15)" fill="rgb(0,153,153)" text-rendering="geometricPrecision" shape-rendering="geometricPrecision" stroke="rgb(0,153,153)" stroke-miterlimit="1.45">
      <path fill="none" d="M310.6781 159.9682 L422.5473 159.9682 L412.3473 199.9682 L300.4781 199.9682 Z" clip-path="url(#clipPath2)"/>
      <text x="312.3027" y="177.0385" clip-path="url(#clipPath2)" fill="white" font-family="'Roboto'" stroke="none" xml:space="preserve">Return ANSI CODE</text>
      <text x="340.1758" y="191.101" clip-path="url(#clipPath2)" fill="white" font-family="'Roboto'" stroke="none" xml:space="preserve">'\u2592'</text>
    </g>
    <g fill="url(#linearGradient4)" text-rendering="geometricPrecision" shape-rendering="geometricPrecision" transform="matrix(1,0,0,1,5,15)" stroke="url(#linearGradient4)">
      <path d="M462.7475 159.9682 L580.0264 159.9682 L569.8264 199.9682 L452.5475 199.9682 Z" stroke="none" clip-path="url(#clipPath2)"/>
    </g>
    <g stroke-linecap="butt" transform="matrix(1,0,0,1,5,15)" fill="rgb(0,153,153)" text-rendering="geometricPrecision" shape-rendering="geometricPrecision" stroke="rgb(0,153,153)" stroke-miterlimit="1.45">
      <path fill="none" d="M462.7475 159.9682 L580.0264 159.9682 L569.8264 199.9682 L452.5475 199.9682 Z" clip-path="url(#clipPath2)"/>
      <text x="467.0769" y="177.0385" clip-path="url(#clipPath2)" fill="white" font-family="'Roboto'" stroke="none" xml:space="preserve">Return ANSI CODE</text>
      <text x="494.4051" y="191.101" clip-path="url(#clipPath2)" fill="white" font-family="'Roboto'" stroke="none" xml:space="preserve">'\u00A7'</text>
    </g>
    <g fill="url(#linearGradient5)" text-rendering="geometricPrecision" shape-rendering="geometricPrecision" transform="matrix(1,0,0,1,5,15)" stroke="url(#linearGradient5)">
      <path d="M156.9333 159.9682 L270.4778 159.9682 L260.2778 199.9682 L146.7333 199.9682 Z" stroke="none" clip-path="url(#clipPath2)"/>
    </g>
    <g stroke-linecap="butt" transform="matrix(1,0,0,1,5,15)" fill="rgb(0,153,153)" text-rendering="geometricPrecision" shape-rendering="geometricPrecision" stroke="rgb(0,153,153)" stroke-miterlimit="1.45">
      <path fill="none" d="M156.9333 159.9682 L270.4778 159.9682 L260.2778 199.9682 L146.7333 199.9682 Z" clip-path="url(#clipPath2)"/>
      <text x="159.3956" y="177.0385" clip-path="url(#clipPath2)" fill="white" font-family="'Roboto'" stroke="none" xml:space="preserve">Return ANSI CODE</text>
      <text x="187.2686" y="191.101" clip-path="url(#clipPath2)" fill="white" font-family="'Roboto'" stroke="none" xml:space="preserve">'\u2593'</text>
    </g>
    <g fill="url(#linearGradient6)" text-rendering="geometricPrecision" shape-rendering="geometricPrecision" transform="matrix(1,0,0,1,5,15)" stroke="url(#linearGradient6)">
      <path d="M620.2267 159.9682 L750.3472 159.9682 L740.1472 199.9682 L610.0267 199.9682 Z" stroke="none" clip-path="url(#clipPath2)"/>
    </g>
    <g stroke-linecap="butt" transform="matrix(1,0,0,1,5,15)" fill="rgb(0,153,153)" text-rendering="geometricPrecision" shape-rendering="geometricPrecision" stroke="rgb(0,153,153)" stroke-miterlimit="1.45">
      <path fill="none" d="M620.2267 159.9682 L750.3472 159.9682 L740.1472 199.9682 L610.0267 199.9682 Z" clip-path="url(#clipPath2)"/>
      <text x="630.9769" y="177.0385" clip-path="url(#clipPath2)" fill="white" font-family="'Roboto'" stroke="none" xml:space="preserve">Return ANSI CODE</text>
      <text x="658.4838" y="191.101" clip-path="url(#clipPath2)" fill="white" font-family="'Roboto'" stroke="none" xml:space="preserve">'\u00B0'</text>
    </g>
    <g fill="url(#linearGradient7)" text-rendering="geometricPrecision" shape-rendering="geometricPrecision" transform="matrix(1,0,0,1,5,15)" stroke="url(#linearGradient7)">
      <path d="M20.2 159.9682 L116.7333 159.9682 L106.5333 199.9682 L10 199.9682 Z" stroke="none" clip-path="url(#clipPath2)"/>
    </g>
    <g stroke-linecap="butt" transform="matrix(1,0,0,1,5,15)" fill="rgb(0,153,153)" text-rendering="geometricPrecision" shape-rendering="geometricPrecision" stroke="rgb(0,153,153)" stroke-miterlimit="1.45">
      <path fill="none" d="M20.2 159.9682 L116.7333 159.9682 L106.5333 199.9682 L10 199.9682 Z" clip-path="url(#clipPath2)"/>
      <text x="45.8852" y="177.0385" clip-path="url(#clipPath2)" fill="white" font-family="'Roboto'" stroke="none" xml:space="preserve">Return</text>
      <text x="59.6196" y="191.101" clip-path="url(#clipPath2)" fill="white" font-family="'Roboto'" stroke="none" xml:space="preserve">'-'</text>
    </g>
    <g stroke-linecap="butt" transform="matrix(1,0,0,1,5,15)" fill="rgb(0,153,153)" text-rendering="geometricPrecision" shape-rendering="geometricPrecision" stroke="rgb(0,153,153)" stroke-miterlimit="1.45">
      <path fill="none" d="M516.2869 40 L516.2869 66" clip-path="url(#clipPath2)"/>
    </g>
    <g stroke-linecap="butt" transform="matrix(1,0,0,1,5,15)" fill="rgb(0,153,153)" text-rendering="geometricPrecision" shape-rendering="geometricPrecision" stroke="rgb(0,153,153)" stroke-miterlimit="1.45">
      <path d="M516.2869 74 L521.2869 62 L516.2869 65 L511.2869 62 Z" stroke="none" clip-path="url(#clipPath2)"/>
      <path fill="none" d="M486.1437 104.3487 L486.1437 141.9057 L361.5127 141.9057 L361.5127 151.9682" clip-path="url(#clipPath2)"/>
      <path d="M361.5127 159.9682 L366.5127 147.9682 L361.5127 150.9682 L356.5127 147.9682 Z" clip-path="url(#clipPath2)" stroke="none"/>
      <text x="450.8311" y="138.9635" clip-path="url(#clipPath2)" fill="white" font-family="'Roboto'" stroke="none" xml:space="preserve">Wood</text>
      <path fill="none" d="M516.2869 111.9057 L516.2869 151.9682" clip-path="url(#clipPath2)"/>
      <path d="M516.2869 159.9682 L521.2869 147.9682 L516.2869 150.9682 L511.2869 147.9682 Z" clip-path="url(#clipPath2)" stroke="none"/>
      <text x="520.2869" y="135.1635" clip-path="url(#clipPath2)" fill="white" font-family="'Roboto'" stroke="none" xml:space="preserve">Leaves</text>
      <path fill="none" d="M456.0006 96.7495 L456.0006 126.9057 L208.6056 126.9057 L208.6056 151.9682" clip-path="url(#clipPath2)"/>
      <path d="M208.6056 159.9682 L213.6056 147.9682 L208.6056 150.9682 L203.6056 147.9682 Z" clip-path="url(#clipPath2)" stroke="none"/>
      <text x="412.0537" y="122.4493" clip-path="url(#clipPath2)" fill="white" font-family="'Roboto'" stroke="none" xml:space="preserve">Stone</text>
      <path fill="none" d="M591.688 92.9529 L680.1869 92.9529 L680.1869 151.9682" clip-path="url(#clipPath2)"/>
      <path d="M680.1869 159.9682 L685.1869 147.9682 L680.1869 150.9682 L675.1869 147.9682 Z" clip-path="url(#clipPath2)" stroke="none"/>
      <text x="603.7698" y="86.0232" clip-path="url(#clipPath2)" fill="white" font-family="'Roboto'" stroke="none" xml:space="preserve">Iron ore</text>
      <path fill="none" d="M440.929 92.9529 L63.3667 92.9529 L63.3667 151.9682" clip-path="url(#clipPath2)"/>
      <path d="M63.3667 159.9682 L68.3667 147.9682 L63.3667 150.9682 L58.3667 147.9682 Z" clip-path="url(#clipPath2)" stroke="none"/>
      <text x="378.2552" y="86.0232" clip-path="url(#clipPath2)" fill="white" font-family="'Roboto'" stroke="none" xml:space="preserve">DEFAULT</text>
    </g>
  </g>
</svg>
