<?xml version="1.0" encoding="UTF-8"?><svg xmlns="http://www.w3.org/2000/svg" xmlns:xlink="http://www.w3.org/1999/xlink" fill-opacity="1" color-rendering="auto" color-interpolation="auto" text-rendering="auto" stroke="black" stroke-linecap="square" width="220" stroke-miterlimit="10" shape-rendering="auto" stroke-opacity="1" fill="black" stroke-dasharray="none" font-weight="normal" stroke-width="1" height="522" font-family="'Dialog'" font-style="normal" stroke-linejoin="miter" font-size="12px" stroke-dashoffset="0" image-rendering="auto">
  <!--Generated by ySVG 2.6-->
  <defs id="genericDefs"/>
  <g>
    <defs id="defs1">
      <linearGradient x1="44.4711" gradientUnits="userSpaceOnUse" x2="138.2043" y1="74" y2="114" id="linearGradient1" spreadMethod="reflect">
        <stop stop-opacity="1" stop-color="rgb(39,43,52)" offset="0%"/>
        <stop stop-opacity="1" stop-color="rgb(39,43,52)" offset="100%"/>
      </linearGradient>
      <linearGradient x1="10.0002" gradientUnits="userSpaceOnUse" x2="172.6752" y1="144" y2="197.6" id="linearGradient2" spreadMethod="reflect">
        <stop stop-opacity="1" stop-color="rgb(39,43,52)" offset="0%"/>
        <stop stop-opacity="1" stop-color="rgb(39,43,52)" offset="100%"/>
      </linearGradient>
      <linearGradient x1="51.3377" gradientUnits="userSpaceOnUse" x2="131.3377" y1="381.6" y2="421.6" id="linearGradient3" spreadMethod="reflect">
        <stop stop-opacity="1" stop-color="rgb(39,43,52)" offset="0%"/>
        <stop stop-opacity="1" stop-color="rgb(39,43,52)" offset="100%"/>
      </linearGradient>
      <linearGradient x1="13.3377" gradientUnits="userSpaceOnUse" x2="169.3377" y1="227.6" y2="274.6" id="linearGradient4" spreadMethod="reflect">
        <stop stop-opacity="1" stop-color="rgb(39,43,52)" offset="0%"/>
        <stop stop-opacity="1" stop-color="rgb(39,43,52)" offset="100%"/>
      </linearGradient>
      <linearGradient x1="51.3377" gradientUnits="userSpaceOnUse" x2="131.3377" y1="451.6" y2="491.6" id="linearGradient5" spreadMethod="reflect">
        <stop stop-opacity="1" stop-color="rgb(39,43,52)" offset="0%"/>
        <stop stop-opacity="1" stop-color="rgb(39,43,52)" offset="100%"/>
      </linearGradient>
      <linearGradient x1="30.6689" gradientUnits="userSpaceOnUse" x2="152.0065" y1="304.6" y2="351.6" id="linearGradient6" spreadMethod="reflect">
        <stop stop-opacity="1" stop-color="rgb(39,43,52)" offset="0%"/>
        <stop stop-opacity="1" stop-color="rgb(39,43,52)" offset="100%"/>
      </linearGradient>
      <linearGradient x1="51.3377" gradientUnits="userSpaceOnUse" x2="131.3377" y1="0" y2="40" id="linearGradient7" spreadMethod="reflect">
        <stop stop-opacity="1" stop-color="rgb(0,153,153)" offset="0%"/>
        <stop stop-opacity="1" stop-color="rgb(0,153,153)" offset="100%"/>
      </linearGradient>
      <clipPath clipPathUnits="userSpaceOnUse" id="clipPath1">
        <path d="M0 0 L220 0 L220 522 L0 522 L0 0 Z"/>
      </clipPath>
      <clipPath clipPathUnits="userSpaceOnUse" id="clipPath2">
        <path d="M-5 -15 L215 -15 L215 507 L-5 507 L-5 -15 Z"/>
      </clipPath>
    </defs>
    <g fill="url(#linearGradient1)" text-rendering="geometricPrecision" shape-rendering="geometricPrecision" transform="matrix(1,0,0,1,5,15)" stroke="url(#linearGradient1)">
      <path d="M44.4711 74 L138.2043 74 L138.2043 114 L44.4711 114 Z" stroke="none" clip-path="url(#clipPath2)"/>
    </g>
    <g stroke-linecap="butt" transform="matrix(1,0,0,1,5,15)" fill="rgb(0,153,153)" text-rendering="geometricPrecision" shape-rendering="geometricPrecision" stroke="rgb(0,153,153)" stroke-miterlimit="1.45">
      <path fill="none" d="M44.4711 74 L138.2043 74 L138.2043 114 L44.4711 114 Z" clip-path="url(#clipPath2)"/>
      <text x="51.4295" y="98.1016" clip-path="url(#clipPath2)" fill="white" font-family="'Roboto'" stroke="none" xml:space="preserve">Clear Inventory</text>
    </g>
    <g fill="url(#linearGradient2)" text-rendering="geometricPrecision" shape-rendering="geometricPrecision" transform="matrix(1,0,0,1,5,15)" stroke="url(#linearGradient2)">
      <path d="M20.0002 144 L162.6752 144 L172.6752 154 L172.6752 197.6 L10.0002 197.6 L10.0002 154 Z" stroke="none" clip-path="url(#clipPath2)"/>
    </g>
    <g stroke-linecap="butt" transform="matrix(1,0,0,1,5,15)" fill="rgb(0,153,153)" text-rendering="geometricPrecision" shape-rendering="geometricPrecision" stroke="rgb(0,153,153)" stroke-miterlimit="1.45">
      <path fill="none" d="M20.0002 144 L162.6752 144 L172.6752 154 L172.6752 197.6 L10.0002 197.6 L10.0002 154 Z" clip-path="url(#clipPath2)"/>
      <text x="35.0438" y="167.8703" clip-path="url(#clipPath2)" fill="white" font-family="'Roboto'" stroke="none" xml:space="preserve">Loop through all non </text>
      <text x="35.6268" y="181.9328" clip-path="url(#clipPath2)" fill="white" font-family="'Roboto'" stroke="none" xml:space="preserve">craftable blockTypes</text>
    </g>
    <g fill="url(#linearGradient3)" text-rendering="geometricPrecision" shape-rendering="geometricPrecision" transform="matrix(1,0,0,1,5,15)" stroke="url(#linearGradient3)">
      <path d="M51.3377 381.6 L131.3377 381.6 L131.3377 411.6 L121.3377 421.6 L61.3377 421.6 L51.3377 411.6 Z" stroke="none" clip-path="url(#clipPath2)"/>
    </g>
    <g stroke-linecap="butt" transform="matrix(1,0,0,1,5,15)" fill="rgb(0,153,153)" text-rendering="geometricPrecision" shape-rendering="geometricPrecision" stroke="rgb(0,153,153)" stroke-miterlimit="1.45">
      <path fill="none" d="M51.3377 381.6 L131.3377 381.6 L131.3377 411.6 L121.3377 421.6 L61.3377 421.6 L51.3377 411.6 Z" clip-path="url(#clipPath2)"/>
      <text x="66.3094" y="405.7016" clip-path="url(#clipPath2)" fill="white" font-family="'Roboto'" stroke="none" xml:space="preserve">Loop End</text>
    </g>
    <g fill="url(#linearGradient4)" text-rendering="geometricPrecision" shape-rendering="geometricPrecision" transform="matrix(1,0,0,1,5,15)" stroke="url(#linearGradient4)">
      <path d="M23.3377 227.6 L159.3377 227.6 L169.3377 237.6 L169.3377 274.6 L13.3377 274.6 L13.3377 237.6 Z" stroke="none" clip-path="url(#clipPath2)"/>
    </g>
    <g stroke-linecap="butt" transform="matrix(1,0,0,1,5,15)" fill="rgb(0,153,153)" text-rendering="geometricPrecision" shape-rendering="geometricPrecision" stroke="rgb(0,153,153)" stroke-miterlimit="1.45">
      <path fill="none" d="M23.3377 227.6 L159.3377 227.6 L169.3377 237.6 L169.3377 274.6 L13.3377 274.6 L13.3377 237.6 Z" clip-path="url(#clipPath2)"/>
      <text x="27.7283" y="248.1703" clip-path="url(#clipPath2)" fill="white" font-family="'Roboto'" stroke="none" xml:space="preserve">Loop through the length</text>
      <text x="50.0057" y="262.2328" clip-path="url(#clipPath2)" fill="white" font-family="'Roboto'" stroke="none" xml:space="preserve">of the inventory</text>
    </g>
    <g fill="url(#linearGradient5)" text-rendering="geometricPrecision" shape-rendering="geometricPrecision" transform="matrix(1,0,0,1,5,15)" stroke="url(#linearGradient5)">
      <path d="M51.3377 451.6 L131.3377 451.6 L131.3377 481.6 L121.3377 491.6 L61.3377 491.6 L51.3377 481.6 Z" stroke="none" clip-path="url(#clipPath2)"/>
    </g>
    <g stroke-linecap="butt" transform="matrix(1,0,0,1,5,15)" fill="rgb(0,153,153)" text-rendering="geometricPrecision" shape-rendering="geometricPrecision" stroke="rgb(0,153,153)" stroke-miterlimit="1.45">
      <path fill="none" d="M51.3377 451.6 L131.3377 451.6 L131.3377 481.6 L121.3377 491.6 L61.3377 491.6 L51.3377 481.6 Z" clip-path="url(#clipPath2)"/>
      <text x="66.3094" y="475.7016" clip-path="url(#clipPath2)" fill="white" font-family="'Roboto'" stroke="none" xml:space="preserve">Loop End</text>
    </g>
    <g fill="url(#linearGradient6)" text-rendering="geometricPrecision" shape-rendering="geometricPrecision" transform="matrix(1,0,0,1,5,15)" stroke="url(#linearGradient6)">
      <path d="M42.6539 304.6 L152.0065 304.6 L140.0215 351.6 L30.6689 351.6 Z" stroke="none" clip-path="url(#clipPath2)"/>
    </g>
    <g stroke-linecap="butt" transform="matrix(1,0,0,1,5,15)" fill="rgb(0,153,153)" text-rendering="geometricPrecision" shape-rendering="geometricPrecision" stroke="rgb(0,153,153)" stroke-miterlimit="1.45">
      <path fill="none" d="M42.6539 304.6 L152.0065 304.6 L140.0215 351.6 L30.6689 351.6 Z" clip-path="url(#clipPath2)"/>
      <text x="43.4285" y="325.1703" clip-path="url(#clipPath2)" fill="white" font-family="'Roboto'" stroke="none" xml:space="preserve">Add blockType to </text>
      <text x="66.7488" y="339.2328" clip-path="url(#clipPath2)" fill="white" font-family="'Roboto'" stroke="none" xml:space="preserve">Inventory</text>
    </g>
    <g fill="url(#linearGradient7)" text-rendering="geometricPrecision" shape-rendering="geometricPrecision" transform="matrix(1,0,0,1,5,15)" stroke="url(#linearGradient7)">
      <circle r="20" clip-path="url(#clipPath2)" cx="91.3377" cy="20" stroke="none"/>
    </g>
    <g text-rendering="geometricPrecision" stroke-miterlimit="1.45" shape-rendering="geometricPrecision" transform="matrix(1,0,0,1,5,15)" stroke-linecap="butt">
      <circle fill="none" r="20" clip-path="url(#clipPath2)" cx="91.3377" cy="20"/>
      <text x="78.5643" xml:space="preserve" y="24.1016" clip-path="url(#clipPath2)" font-family="'Roboto'" stroke="none">Start</text>
    </g>
    <g stroke-linecap="butt" transform="matrix(1,0,0,1,5,15)" fill="rgb(0,153,153)" text-rendering="geometricPrecision" shape-rendering="geometricPrecision" stroke="rgb(0,153,153)" stroke-miterlimit="1.45">
      <path fill="none" d="M91.3377 114 L91.3377 135.9707" clip-path="url(#clipPath2)"/>
    </g>
    <g stroke-linecap="butt" transform="matrix(1,0,0,1,5,15)" fill="rgb(0,153,153)" text-rendering="geometricPrecision" shape-rendering="geometricPrecision" stroke="rgb(0,153,153)" stroke-miterlimit="1.45">
      <path d="M91.3377 143.9707 L96.3377 131.9707 L91.3377 134.9707 L86.3377 131.9707 Z" stroke="none" clip-path="url(#clipPath2)"/>
      <path fill="none" d="M91.3377 197.6293 L91.3377 219.6" clip-path="url(#clipPath2)"/>
      <path d="M91.3377 227.6 L96.3377 215.6 L91.3377 218.6 L86.3377 215.6 Z" clip-path="url(#clipPath2)" stroke="none"/>
      <path fill="none" d="M131.3377 401.6 L184.3377 401.6 L184.3377 251.1 L177.3377 251.1" clip-path="url(#clipPath2)"/>
      <path d="M169.3377 251.1 L181.3377 256.1 L178.3377 251.1 L181.3377 246.1 Z" clip-path="url(#clipPath2)" stroke="none"/>
      <path fill="none" d="M91.3377 421.6293 L91.3377 443.6" clip-path="url(#clipPath2)"/>
      <path d="M91.3377 451.6 L96.3377 439.6 L91.3377 442.6 L86.3377 439.6 Z" clip-path="url(#clipPath2)" stroke="none"/>
      <path fill="none" d="M131.3377 471.6 L199.3377 471.6 L199.3377 170.8 L180.7012 170.8" clip-path="url(#clipPath2)"/>
      <path d="M172.7012 170.8 L184.7012 175.8 L181.7012 170.8 L184.7012 165.8 Z" clip-path="url(#clipPath2)" stroke="none"/>
      <path fill="none" d="M91.3377 274.6293 L91.3377 296.6" clip-path="url(#clipPath2)"/>
      <path d="M91.3377 304.6 L96.3377 292.6 L91.3377 295.6 L86.3377 292.6 Z" clip-path="url(#clipPath2)" stroke="none"/>
      <path fill="none" d="M91.3377 351.6293 L91.3377 373.6" clip-path="url(#clipPath2)"/>
      <path d="M91.3377 381.6 L96.3377 369.6 L91.3377 372.6 L86.3377 369.6 Z" clip-path="url(#clipPath2)" stroke="none"/>
      <path fill="none" d="M91.3377 40 L91.3377 65.9668" clip-path="url(#clipPath2)"/>
      <path d="M91.3377 73.9668 L96.3377 61.9668 L91.3377 64.9668 L86.3377 61.9668 Z" clip-path="url(#clipPath2)" stroke="none"/>
    </g>
  </g>
</svg>
