<?xml version="1.0" encoding="UTF-8"?><svg xmlns="http://www.w3.org/2000/svg" xmlns:xlink="http://www.w3.org/1999/xlink" fill-opacity="1" color-rendering="auto" color-interpolation="auto" text-rendering="auto" stroke="black" stroke-linecap="square" width="761" stroke-miterlimit="10" shape-rendering="auto" stroke-opacity="1" fill="black" stroke-dasharray="none" font-weight="normal" stroke-width="1" height="369" font-family="'Dialog'" font-style="normal" stroke-linejoin="miter" font-size="12px" stroke-dashoffset="0" image-rendering="auto">
  <!--Generated by ySVG 2.6-->
  <defs id="genericDefs"/>
  <g>
    <defs id="defs1">
      <linearGradient x1="121.6401" gradientUnits="userSpaceOnUse" x2="201.6401" y1="0" y2="40" id="linearGradient1" spreadMethod="reflect">
        <stop stop-opacity="1" stop-color="rgb(0,153,153)" offset="0%"/>
        <stop stop-opacity="1" stop-color="rgb(0,153,153)" offset="100%"/>
      </linearGradient>
      <linearGradient x1="52.2734" gradientUnits="userSpaceOnUse" x2="271.0067" y1="158.7012" y2="198.7012" id="linearGradient2" spreadMethod="reflect">
        <stop stop-opacity="1" stop-color="rgb(39,43,52)" offset="0%"/>
        <stop stop-opacity="1" stop-color="rgb(39,43,52)" offset="100%"/>
      </linearGradient>
      <linearGradient x1="56.2734" gradientUnits="userSpaceOnUse" x2="267.0067" y1="228.7012" y2="268.7012" id="linearGradient3" spreadMethod="reflect">
        <stop stop-opacity="1" stop-color="rgb(39,43,52)" offset="0%"/>
        <stop stop-opacity="1" stop-color="rgb(39,43,52)" offset="100%"/>
      </linearGradient>
      <linearGradient x1="26.7534" gradientUnits="userSpaceOnUse" x2="296.5267" y1="298.7012" y2="338.7012" id="linearGradient4" spreadMethod="reflect">
        <stop stop-opacity="1" stop-color="rgb(39,43,52)" offset="0%"/>
        <stop stop-opacity="1" stop-color="rgb(39,43,52)" offset="100%"/>
      </linearGradient>
      <linearGradient x1="10.0001" gradientUnits="userSpaceOnUse" x2="313.2801" y1="70" y2="110" id="linearGradient5" spreadMethod="reflect">
        <stop stop-opacity="1" stop-color="rgb(39,43,52)" offset="0%"/>
        <stop stop-opacity="1" stop-color="rgb(39,43,52)" offset="100%"/>
      </linearGradient>
      <linearGradient x1="361.9818" gradientUnits="userSpaceOnUse" x2="740.4222" y1="70" y2="110" id="linearGradient6" spreadMethod="reflect">
        <stop stop-opacity="1" stop-color="rgb(39,43,52)" offset="0%"/>
        <stop stop-opacity="1" stop-color="rgb(39,43,52)" offset="100%"/>
      </linearGradient>
      <clipPath clipPathUnits="userSpaceOnUse" id="clipPath1">
        <path d="M0 0 L761 0 L761 369 L0 369 L0 0 Z"/>
      </clipPath>
      <clipPath clipPathUnits="userSpaceOnUse" id="clipPath2">
        <path d="M-5 -15 L756 -15 L756 354 L-5 354 L-5 -15 Z"/>
      </clipPath>
    </defs>
    <g fill="url(#linearGradient1)" text-rendering="geometricPrecision" shape-rendering="geometricPrecision" transform="matrix(1,0,0,1,5,15)" stroke="url(#linearGradient1)">
      <circle r="20" clip-path="url(#clipPath2)" cx="161.6401" cy="20" stroke="none"/>
    </g>
    <g text-rendering="geometricPrecision" stroke-miterlimit="1.45" shape-rendering="geometricPrecision" transform="matrix(1,0,0,1,5,15)" stroke-linecap="butt">
      <circle fill="none" r="20" clip-path="url(#clipPath2)" cx="161.6401" cy="20"/>
      <text x="148.8666" y="24.1016" clip-path="url(#clipPath2)" fill="white" font-family="'Roboto'" stroke="none" xml:space="preserve">Start</text>
    </g>
    <g fill="url(#linearGradient2)" text-rendering="geometricPrecision" shape-rendering="geometricPrecision" transform="matrix(1,0,0,1,5,15)" stroke="url(#linearGradient2)">
      <path d="M52.2734 158.7012 L271.0067 158.7012 L271.0067 198.7012 L52.2734 198.7012 Z" stroke="none" clip-path="url(#clipPath2)"/>
    </g>
    <g stroke-linecap="butt" transform="matrix(1,0,0,1,5,15)" fill="rgb(0,153,153)" text-rendering="geometricPrecision" shape-rendering="geometricPrecision" stroke="rgb(0,153,153)" stroke-miterlimit="1.45">
      <path fill="none" d="M52.2734 158.7012 L271.0067 158.7012 L271.0067 198.7012 L52.2734 198.7012 Z" clip-path="url(#clipPath2)"/>
      <text x="64.6821" y="182.8027" clip-path="url(#clipPath2)" fill="white" font-family="'Roboto'" stroke="none" xml:space="preserve">Remove wood (2) from the inventory</text>
    </g>
    <g fill="url(#linearGradient3)" text-rendering="geometricPrecision" shape-rendering="geometricPrecision" transform="matrix(1,0,0,1,5,15)" stroke="url(#linearGradient3)">
      <path d="M56.2734 228.7012 L267.0067 228.7012 L267.0067 268.7012 L56.2734 268.7012 Z" stroke="none" clip-path="url(#clipPath2)"/>
    </g>
    <g stroke-linecap="butt" transform="matrix(1,0,0,1,5,15)" fill="rgb(0,153,153)" text-rendering="geometricPrecision" shape-rendering="geometricPrecision" stroke="rgb(0,153,153)" stroke-miterlimit="1.45">
      <path fill="none" d="M56.2734 228.7012 L267.0067 228.7012 L267.0067 268.7012 L56.2734 268.7012 Z" clip-path="url(#clipPath2)"/>
      <text x="64.8813" y="252.8027" clip-path="url(#clipPath2)" fill="white" font-family="'Roboto'" stroke="none" xml:space="preserve">Add a wooden plank to the inventory</text>
    </g>
    <g fill="url(#linearGradient4)" text-rendering="geometricPrecision" shape-rendering="geometricPrecision" transform="matrix(1,0,0,1,5,15)" stroke="url(#linearGradient4)">
      <path d="M26.7534 318.7012 Q31.7534 303.7012 46.7534 298.7012 L291.5267 298.7012 Q301.5267 318.7012 291.5267 338.7012 L46.7534 338.7012 Q31.7534 333.7012 26.7534 318.7012" stroke="none" clip-path="url(#clipPath2)"/>
    </g>
    <g stroke-linecap="butt" transform="matrix(1,0,0,1,5,15)" fill="rgb(0,153,153)" text-rendering="geometricPrecision" shape-rendering="geometricPrecision" stroke="rgb(0,153,153)" stroke-miterlimit="1.45">
      <path fill="none" d="M26.7534 318.7012 Q31.7534 303.7012 46.7534 298.7012 L291.5267 298.7012 Q301.5267 318.7012 291.5267 338.7012 L46.7534 338.7012 Q31.7534 333.7012 26.7534 318.7012" clip-path="url(#clipPath2)"/>
      <text x="40.1254" y="322.8027" clip-path="url(#clipPath2)" fill="white" font-family="'Roboto'" stroke="none" xml:space="preserve">Print "Crafted Wooden Planks." to the console</text>
    </g>
    <g fill="url(#linearGradient5)" text-rendering="geometricPrecision" shape-rendering="geometricPrecision" transform="matrix(1,0,0,1,5,15)" stroke="url(#linearGradient5)">
      <path d="M161.6401 70 L313.2801 90 L161.6401 110 L10.0001 90 Z" stroke="none" clip-path="url(#clipPath2)"/>
    </g>
    <g stroke-linecap="butt" transform="matrix(1,0,0,1,5,15)" fill="rgb(0,153,153)" text-rendering="geometricPrecision" shape-rendering="geometricPrecision" stroke="rgb(0,153,153)" stroke-miterlimit="1.45">
      <path fill="none" d="M161.6401 70 L313.2801 90 L161.6401 110 L10.0001 90 Z" clip-path="url(#clipPath2)"/>
      <text x="72.4428" y="94.1016" clip-path="url(#clipPath2)" fill="white" font-family="'Roboto'" stroke="none" xml:space="preserve">If the inventory contains wood (2)</text>
    </g>
    <g fill="url(#linearGradient6)" text-rendering="geometricPrecision" shape-rendering="geometricPrecision" transform="matrix(1,0,0,1,5,15)" stroke="url(#linearGradient6)">
      <path d="M361.9818 90 Q366.9818 75 381.9818 70 L735.4222 70 Q745.4222 90 735.4222 110 L381.9818 110 Q366.9818 105 361.9818 90" stroke="none" clip-path="url(#clipPath2)"/>
    </g>
    <g stroke-linecap="butt" transform="matrix(1,0,0,1,5,15)" fill="rgb(0,153,153)" text-rendering="geometricPrecision" shape-rendering="geometricPrecision" stroke="rgb(0,153,153)" stroke-miterlimit="1.45">
      <path fill="none" d="M361.9818 90 Q366.9818 75 381.9818 70 L735.4222 70 Q745.4222 90 735.4222 110 L381.9818 110 Q366.9818 105 361.9818 90" clip-path="url(#clipPath2)"/>
      <text x="370.6893" y="94.1016" clip-path="url(#clipPath2)" fill="white" font-family="'Roboto'" stroke="none" xml:space="preserve">Print "Insufficient resources to craft Wooden Planks." to the console</text>
    </g>
    <g stroke-linecap="butt" transform="matrix(1,0,0,1,5,15)" fill="rgb(0,153,153)" text-rendering="geometricPrecision" shape-rendering="geometricPrecision" stroke="rgb(0,153,153)" stroke-miterlimit="1.45">
      <path fill="none" d="M161.6401 198.7012 L161.6401 220.6719" clip-path="url(#clipPath2)"/>
    </g>
    <g stroke-linecap="butt" transform="matrix(1,0,0,1,5,15)" fill="rgb(0,153,153)" text-rendering="geometricPrecision" shape-rendering="geometricPrecision" stroke="rgb(0,153,153)" stroke-miterlimit="1.45">
      <path d="M161.6401 228.6719 L166.6401 216.6719 L161.6401 219.6719 L156.6401 216.6719 Z" stroke="none" clip-path="url(#clipPath2)"/>
      <path fill="none" d="M161.6401 268.7012 L161.6401 290.6719" clip-path="url(#clipPath2)"/>
      <path d="M161.6401 298.6719 L166.6401 286.6719 L161.6401 289.6719 L156.6401 286.6719 Z" clip-path="url(#clipPath2)" stroke="none"/>
      <path fill="none" d="M161.6401 40 L161.6401 62" clip-path="url(#clipPath2)"/>
      <path d="M161.6401 70 L166.6401 58 L161.6401 61 L156.6401 58 Z" clip-path="url(#clipPath2)" stroke="none"/>
      <path fill="none" d="M161.6401 110 L161.6401 150.6536" clip-path="url(#clipPath2)"/>
      <path d="M161.6401 158.6536 L166.6401 146.6536 L161.6401 149.6536 L156.6401 146.6536 Z" clip-path="url(#clipPath2)" stroke="none"/>
      <text x="132.9662" y="134.1895" clip-path="url(#clipPath2)" fill="white" font-family="sans-serif" stroke="none" xml:space="preserve">True</text>
      <path fill="none" d="M313.3276 90 L353.9342 90" clip-path="url(#clipPath2)"/>
      <path d="M361.9342 90 L349.9342 85 L352.9342 90 L349.9342 95 Z" clip-path="url(#clipPath2)" stroke="none"/>
      <text x="322.959" y="83.3633" clip-path="url(#clipPath2)" fill="white" font-family="sans-serif" stroke="none" xml:space="preserve">False</text>
    </g>
  </g>
</svg>
