<?xml version="1.0" encoding="UTF-8"?><svg xmlns="http://www.w3.org/2000/svg" xmlns:xlink="http://www.w3.org/1999/xlink" fill-opacity="1" color-rendering="auto" color-interpolation="auto" text-rendering="auto" stroke="black" stroke-linecap="square" width="645" stroke-miterlimit="10" shape-rendering="auto" stroke-opacity="1" fill="black" stroke-dasharray="none" font-weight="normal" stroke-width="1" height="490" font-family="'Dialog'" font-style="normal" stroke-linejoin="miter" font-size="12px" stroke-dashoffset="0" image-rendering="auto">
  <!--Generated by ySVG 2.6-->
  <defs id="genericDefs"/>
  <g>
    <defs id="defs1">
      <linearGradient x1="77.2576" gradientUnits="userSpaceOnUse" x2="395.3521" y1="2" y2="42" id="linearGradient1" spreadMethod="reflect">
        <stop stop-opacity="1" stop-color="rgb(39,43,52)" offset="0%"/>
        <stop stop-opacity="1" stop-color="rgb(39,43,52)" offset="100%"/>
      </linearGradient>
      <linearGradient x1="78.3537" gradientUnits="userSpaceOnUse" x2="394.2561" y1="352" y2="392" id="linearGradient2" spreadMethod="reflect">
        <stop stop-opacity="1" stop-color="rgb(39,43,52)" offset="0%"/>
        <stop stop-opacity="1" stop-color="rgb(39,43,52)" offset="100%"/>
      </linearGradient>
      <linearGradient x1="48.5488" gradientUnits="userSpaceOnUse" x2="424.061" y1="282" y2="322" id="linearGradient3" spreadMethod="reflect">
        <stop stop-opacity="1" stop-color="rgb(39,43,52)" offset="0%"/>
        <stop stop-opacity="1" stop-color="rgb(39,43,52)" offset="100%"/>
      </linearGradient>
      <linearGradient x1="98.6463" gradientUnits="userSpaceOnUse" x2="373.9634" y1="212" y2="252" id="linearGradient4" spreadMethod="reflect">
        <stop stop-opacity="1" stop-color="rgb(39,43,52)" offset="0%"/>
        <stop stop-opacity="1" stop-color="rgb(39,43,52)" offset="100%"/>
      </linearGradient>
      <linearGradient x1="10.5" gradientUnits="userSpaceOnUse" x2="462.1097" y1="422" y2="462" id="linearGradient5" spreadMethod="reflect">
        <stop stop-opacity="1" stop-color="rgb(39,43,52)" offset="0%"/>
        <stop stop-opacity="1" stop-color="rgb(39,43,52)" offset="100%"/>
      </linearGradient>
      <linearGradient x1="483.729" gradientUnits="userSpaceOnUse" x2="602.729" y1="422" y2="462" id="linearGradient6" spreadMethod="reflect">
        <stop stop-opacity="1" stop-color="rgb(39,43,52)" offset="0%"/>
        <stop stop-opacity="1" stop-color="rgb(39,43,52)" offset="100%"/>
      </linearGradient>
      <linearGradient x1="483.729" gradientUnits="userSpaceOnUse" x2="602.729" y1="352" y2="392" id="linearGradient7" spreadMethod="reflect">
        <stop stop-opacity="1" stop-color="rgb(39,43,52)" offset="0%"/>
        <stop stop-opacity="1" stop-color="rgb(39,43,52)" offset="100%"/>
      </linearGradient>
      <linearGradient x1="486.5089" gradientUnits="userSpaceOnUse" x2="599.9492" y1="212" y2="252" id="linearGradient8" spreadMethod="reflect">
        <stop stop-opacity="1" stop-color="rgb(39,43,52)" offset="0%"/>
        <stop stop-opacity="1" stop-color="rgb(39,43,52)" offset="100%"/>
      </linearGradient>
      <linearGradient x1="472.1097" gradientUnits="userSpaceOnUse" x2="614.3483" y1="282" y2="322" id="linearGradient9" spreadMethod="reflect">
        <stop stop-opacity="1" stop-color="rgb(39,43,52)" offset="0%"/>
        <stop stop-opacity="1" stop-color="rgb(39,43,52)" offset="100%"/>
      </linearGradient>
      <linearGradient x1="98.6463" gradientUnits="userSpaceOnUse" x2="373.9634" y1="142" y2="182" id="linearGradient10" spreadMethod="reflect">
        <stop stop-opacity="1" stop-color="rgb(39,43,52)" offset="0%"/>
        <stop stop-opacity="1" stop-color="rgb(39,43,52)" offset="100%"/>
      </linearGradient>
      <linearGradient x1="485.5057" gradientUnits="userSpaceOnUse" x2="600.9523" y1="142" y2="182" id="linearGradient11" spreadMethod="reflect">
        <stop stop-opacity="1" stop-color="rgb(39,43,52)" offset="0%"/>
        <stop stop-opacity="1" stop-color="rgb(39,43,52)" offset="100%"/>
      </linearGradient>
      <linearGradient x1="98.6463" gradientUnits="userSpaceOnUse" x2="373.9634" y1="72" y2="112" id="linearGradient12" spreadMethod="reflect">
        <stop stop-opacity="1" stop-color="rgb(39,43,52)" offset="0%"/>
        <stop stop-opacity="1" stop-color="rgb(39,43,52)" offset="100%"/>
      </linearGradient>
      <linearGradient x1="487.1777" gradientUnits="userSpaceOnUse" x2="599.2803" y1="72" y2="112" id="linearGradient13" spreadMethod="reflect">
        <stop stop-opacity="1" stop-color="rgb(39,43,52)" offset="0%"/>
        <stop stop-opacity="1" stop-color="rgb(39,43,52)" offset="100%"/>
      </linearGradient>
      <linearGradient x1="503.229" gradientUnits="userSpaceOnUse" x2="583.229" y1="2" y2="42" id="linearGradient14" spreadMethod="reflect">
        <stop stop-opacity="1" stop-color="rgb(0,153,153)" offset="0%"/>
        <stop stop-opacity="1" stop-color="rgb(0,153,153)" offset="100%"/>
      </linearGradient>
      <clipPath clipPathUnits="userSpaceOnUse" id="clipPath1">
        <path d="M0 0 L645 0 L645 490 L0 490 L0 0 Z"/>
      </clipPath>
      <clipPath clipPathUnits="userSpaceOnUse" id="clipPath2">
        <path d="M-15 -13 L630 -13 L630 477 L-15 477 L-15 -13 Z"/>
      </clipPath>
    </defs>
    <g fill="rgb(33,36,42)" text-rendering="geometricPrecision" shape-rendering="geometricPrecision" transform="translate(15,13)" stroke="rgb(33,36,42)">
      <rect x="-15" width="645" height="490" y="-13" clip-path="url(#clipPath2)" stroke="none"/>
    </g>
    <g fill="url(#linearGradient1)" text-rendering="geometricPrecision" shape-rendering="geometricPrecision" transform="matrix(1,0,0,1,15,13)" stroke="url(#linearGradient1)">
      <path d="M236.3049 2 L395.3521 22 L236.3049 42 L77.2576 22 Z" stroke="none" clip-path="url(#clipPath2)"/>
    </g>
    <g stroke-linecap="butt" transform="matrix(1,0,0,1,15,13)" fill="rgb(0,153,153)" text-rendering="geometricPrecision" shape-rendering="geometricPrecision" stroke="rgb(0,153,153)" stroke-miterlimit="1.45">
      <path fill="none" d="M236.3049 2 L395.3521 22 L236.3049 42 L77.2576 22 Z" clip-path="url(#clipPath2)"/>
      <text x="124.5549" y="26.1016" clip-path="url(#clipPath2)" fill="white" font-family="'Roboto'" stroke="none" xml:space="preserve">compare craftedItem to hardcoded values</text>
    </g>
    <g fill="url(#linearGradient2)" text-rendering="geometricPrecision" shape-rendering="geometricPrecision" transform="matrix(1,0,0,1,15,13)" stroke="url(#linearGradient2)">
      <path d="M236.3049 352 L394.2561 372 L236.3049 392 L78.3537 372 Z" stroke="none" clip-path="url(#clipPath2)"/>
    </g>
    <g stroke-linecap="butt" transform="matrix(1,0,0,1,15,13)" fill="rgb(0,153,153)" text-rendering="geometricPrecision" shape-rendering="geometricPrecision" stroke="rgb(0,153,153)" stroke-miterlimit="1.45">
      <path fill="none" d="M236.3049 352 L394.2561 372 L236.3049 392 L78.3537 372 Z" clip-path="url(#clipPath2)"/>
      <text x="152.4894" y="376.1016" clip-path="url(#clipPath2)" fill="white" font-family="'Roboto'" stroke="none" xml:space="preserve">in the case that BlockName AIR</text>
    </g>
    <g fill="url(#linearGradient3)" text-rendering="geometricPrecision" shape-rendering="geometricPrecision" transform="matrix(1,0,0,1,15,13)" stroke="url(#linearGradient3)">
      <path d="M236.3049 282 L424.061 302 L236.3049 322 L48.5488 302 Z" stroke="none" clip-path="url(#clipPath2)"/>
    </g>
    <g stroke-linecap="butt" transform="matrix(1,0,0,1,15,13)" fill="rgb(0,153,153)" text-rendering="geometricPrecision" shape-rendering="geometricPrecision" stroke="rgb(0,153,153)" stroke-miterlimit="1.45">
      <path fill="none" d="M236.3049 282 L424.061 302 L236.3049 322 L48.5488 302 Z" clip-path="url(#clipPath2)"/>
      <text x="141.5705" y="306.1016" clip-path="url(#clipPath2)" fill="white" font-family="'Roboto'" stroke="none" xml:space="preserve">in the case that blockType is WOOD</text>
    </g>
    <g fill="url(#linearGradient4)" text-rendering="geometricPrecision" shape-rendering="geometricPrecision" transform="matrix(1,0,0,1,15,13)" stroke="url(#linearGradient4)">
      <path d="M236.3049 212 L373.9634 232 L236.3049 252 L98.6463 232 Z" stroke="none" clip-path="url(#clipPath2)"/>
    </g>
    <g stroke-linecap="butt" transform="matrix(1,0,0,1,15,13)" fill="rgb(0,153,153)" text-rendering="geometricPrecision" shape-rendering="geometricPrecision" stroke="rgb(0,153,153)" stroke-miterlimit="1.45">
      <path fill="none" d="M236.3049 212 L373.9634 232 L236.3049 252 L98.6463 232 Z" clip-path="url(#clipPath2)"/>
      <text x="143.7736" y="236.1016" clip-path="url(#clipPath2)" fill="white" font-family="'Roboto'" stroke="none" xml:space="preserve">in the case that blockType LEAVES</text>
    </g>
    <g fill="url(#linearGradient5)" text-rendering="geometricPrecision" shape-rendering="geometricPrecision" transform="matrix(1,0,0,1,15,13)" stroke="url(#linearGradient5)">
      <path d="M236.3049 422 L462.1097 442 L236.3049 462 L10.5 442 Z" stroke="none" clip-path="url(#clipPath2)"/>
    </g>
    <g stroke-linecap="butt" transform="matrix(1,0,0,1,15,13)" fill="rgb(0,153,153)" text-rendering="geometricPrecision" shape-rendering="geometricPrecision" stroke="rgb(0,153,153)" stroke-miterlimit="1.45">
      <path fill="none" d="M236.3049 422 L462.1097 442 L236.3049 462 L10.5 442 Z" clip-path="url(#clipPath2)"/>
      <text x="43.5607" y="446.1016" clip-path="url(#clipPath2)" fill="white" font-family="'Roboto'" stroke="none" xml:space="preserve">in the case that blockType does not correspond to any hardcoded values</text>
    </g>
    <g fill="url(#linearGradient6)" text-rendering="geometricPrecision" shape-rendering="geometricPrecision" transform="matrix(1,0,0,1,15,13)" stroke="url(#linearGradient6)">
      <path d="M493.929 422 L602.729 422 L592.5291 462 L483.729 462 Z" stroke="none" clip-path="url(#clipPath2)"/>
    </g>
    <g stroke-linecap="butt" transform="matrix(1,0,0,1,15,13)" fill="rgb(0,153,153)" text-rendering="geometricPrecision" shape-rendering="geometricPrecision" stroke="rgb(0,153,153)" stroke-miterlimit="1.45">
      <path fill="none" d="M493.929 422 L602.729 422 L592.5291 462 L483.729 462 Z" clip-path="url(#clipPath2)"/>
      <text x="497.2945" y="446.1016" clip-path="url(#clipPath2)" fill="white" font-family="'Roboto'" stroke="none" xml:space="preserve">return "Unknown"</text>
    </g>
    <g fill="url(#linearGradient7)" text-rendering="geometricPrecision" shape-rendering="geometricPrecision" transform="matrix(1,0,0,1,15,13)" stroke="url(#linearGradient7)">
      <path d="M493.929 352 L602.729 352 L592.5291 392 L483.729 392 Z" stroke="none" clip-path="url(#clipPath2)"/>
    </g>
    <g stroke-linecap="butt" transform="matrix(1,0,0,1,15,13)" fill="rgb(0,153,153)" text-rendering="geometricPrecision" shape-rendering="geometricPrecision" stroke="rgb(0,153,153)" stroke-miterlimit="1.45">
      <path fill="none" d="M493.929 352 L602.729 352 L592.5291 392 L483.729 392 Z" clip-path="url(#clipPath2)"/>
      <text x="488.9742" y="376.1016" clip-path="url(#clipPath2)" fill="white" font-family="'Roboto'" stroke="none" xml:space="preserve">return "Empty Block"</text>
    </g>
    <g fill="url(#linearGradient8)" text-rendering="geometricPrecision" shape-rendering="geometricPrecision" transform="matrix(1,0,0,1,15,13)" stroke="url(#linearGradient8)">
      <path d="M496.7089 212 L599.9492 212 L589.7491 252 L486.5089 252 Z" stroke="none" clip-path="url(#clipPath2)"/>
    </g>
    <g stroke-linecap="butt" transform="matrix(1,0,0,1,15,13)" fill="rgb(0,153,153)" text-rendering="geometricPrecision" shape-rendering="geometricPrecision" stroke="rgb(0,153,153)" stroke-miterlimit="1.45">
      <path fill="none" d="M496.7089 212 L599.9492 212 L589.7491 252 L486.5089 252 Z" clip-path="url(#clipPath2)"/>
      <text x="503.2388" y="236.1016" clip-path="url(#clipPath2)" fill="white" font-family="'Roboto'" stroke="none" xml:space="preserve">return "Leaves"</text>
    </g>
    <g fill="url(#linearGradient9)" text-rendering="geometricPrecision" shape-rendering="geometricPrecision" transform="matrix(1,0,0,1,15,13)" stroke="url(#linearGradient9)">
      <path d="M482.3098 282 L614.3483 282 L604.1483 322 L472.1097 322 Z" stroke="none" clip-path="url(#clipPath2)"/>
    </g>
    <g stroke-linecap="butt" transform="matrix(1,0,0,1,15,13)" fill="rgb(0,153,153)" text-rendering="geometricPrecision" shape-rendering="geometricPrecision" stroke="rgb(0,153,153)" stroke-miterlimit="1.45">
      <path fill="none" d="M482.3098 282 L614.3483 282 L604.1483 322 L472.1097 322 Z" clip-path="url(#clipPath2)"/>
      <text x="500.0484" y="306.1016" clip-path="url(#clipPath2)" fill="white" font-family="'Roboto'" stroke="none" xml:space="preserve">return "Wooden"</text>
    </g>
    <g fill="url(#linearGradient10)" text-rendering="geometricPrecision" shape-rendering="geometricPrecision" transform="matrix(1,0,0,1,15,13)" stroke="url(#linearGradient10)">
      <path d="M236.3049 142 L373.9634 162 L236.3049 182 L98.6463 162 Z" stroke="none" clip-path="url(#clipPath2)"/>
    </g>
    <g stroke-linecap="butt" transform="matrix(1,0,0,1,15,13)" fill="rgb(0,153,153)" text-rendering="geometricPrecision" shape-rendering="geometricPrecision" stroke="rgb(0,153,153)" stroke-miterlimit="1.45">
      <path fill="none" d="M236.3049 142 L373.9634 162 L236.3049 182 L98.6463 162 Z" clip-path="url(#clipPath2)"/>
      <text x="146.1613" y="166.1016" clip-path="url(#clipPath2)" fill="white" font-family="'Roboto'" stroke="none" xml:space="preserve">in the case that blockType STONE</text>
    </g>
    <g fill="url(#linearGradient11)" text-rendering="geometricPrecision" shape-rendering="geometricPrecision" transform="matrix(1,0,0,1,15,13)" stroke="url(#linearGradient11)">
      <path d="M495.7057 142 L600.9523 142 L590.7524 182 L485.5057 182 Z" stroke="none" clip-path="url(#clipPath2)"/>
    </g>
    <g stroke-linecap="butt" transform="matrix(1,0,0,1,15,13)" fill="rgb(0,153,153)" text-rendering="geometricPrecision" shape-rendering="geometricPrecision" stroke="rgb(0,153,153)" stroke-miterlimit="1.45">
      <path fill="none" d="M495.7057 142 L600.9523 142 L590.7524 182 L485.5057 182 Z" clip-path="url(#clipPath2)"/>
      <text x="506.6577" y="166.1016" clip-path="url(#clipPath2)" fill="white" font-family="'Roboto'" stroke="none" xml:space="preserve">return "Stone"</text>
    </g>
    <g fill="url(#linearGradient12)" text-rendering="geometricPrecision" shape-rendering="geometricPrecision" transform="matrix(1,0,0,1,15,13)" stroke="url(#linearGradient12)">
      <path d="M236.3049 72 L373.9634 92 L236.3049 112 L98.6463 92 Z" stroke="none" clip-path="url(#clipPath2)"/>
    </g>
    <g stroke-linecap="butt" transform="matrix(1,0,0,1,15,13)" fill="rgb(0,153,153)" text-rendering="geometricPrecision" shape-rendering="geometricPrecision" stroke="rgb(0,153,153)" stroke-miterlimit="1.45">
      <path fill="none" d="M236.3049 72 L373.9634 92 L236.3049 112 L98.6463 92 Z" clip-path="url(#clipPath2)"/>
      <text x="137.4484" y="96.1016" clip-path="url(#clipPath2)" fill="white" font-family="'Roboto'" stroke="none" xml:space="preserve">in the case that blockType IRON_ORE</text>
    </g>
    <g fill="url(#linearGradient13)" text-rendering="geometricPrecision" shape-rendering="geometricPrecision" transform="matrix(1,0,0,1,15,13)" stroke="url(#linearGradient13)">
      <path d="M497.3777 72 L599.2803 72 L589.0803 112 L487.1777 112 Z" stroke="none" clip-path="url(#clipPath2)"/>
    </g>
    <g stroke-linecap="butt" transform="matrix(1,0,0,1,15,13)" fill="rgb(0,153,153)" text-rendering="geometricPrecision" shape-rendering="geometricPrecision" stroke="rgb(0,153,153)" stroke-miterlimit="1.45">
      <path fill="none" d="M497.3777 72 L599.2803 72 L589.0803 112 L487.1777 112 Z" clip-path="url(#clipPath2)"/>
      <text x="500.8745" y="96.1016" clip-path="url(#clipPath2)" fill="white" font-family="'Roboto'" stroke="none" xml:space="preserve">return "Iron Ore"</text>
    </g>
    <g fill="url(#linearGradient14)" text-rendering="geometricPrecision" shape-rendering="geometricPrecision" transform="matrix(1,0,0,1,15,13)" stroke="url(#linearGradient14)">
      <circle r="20" clip-path="url(#clipPath2)" cx="543.229" cy="22" stroke="none"/>
    </g>
    <g text-rendering="geometricPrecision" stroke-miterlimit="1.45" shape-rendering="geometricPrecision" transform="matrix(1,0,0,1,15,13)" stroke-linecap="butt">
      <circle fill="none" r="20" clip-path="url(#clipPath2)" cx="543.229" cy="22"/>
      <text x="530.4556" xml:space="preserve" y="26.1016" clip-path="url(#clipPath2)" font-family="'Roboto'" stroke="none">Start</text>
    </g>
    <g stroke-linecap="butt" transform="matrix(1,0,0,1,15,13)" fill="rgb(0,153,153)" text-rendering="geometricPrecision" shape-rendering="geometricPrecision" stroke="rgb(0,153,153)" stroke-miterlimit="1.45">
      <path fill="none" d="M140.8514 14 L27.0488 14 L27.0488 372 L70.3537 372" clip-path="url(#clipPath2)"/>
    </g>
    <g stroke-linecap="butt" transform="matrix(1,0,0,1,15,13)" fill="rgb(0,153,153)" text-rendering="geometricPrecision" shape-rendering="geometricPrecision" stroke="rgb(0,153,153)" stroke-miterlimit="1.45">
      <path d="M78.3537 372 L66.3537 367 L69.3537 372 L66.3537 377 Z" stroke="none" clip-path="url(#clipPath2)"/>
      <path fill="none" d="M77.2193 22 L38.0488 22 L38.0488 302 L40.5488 302" clip-path="url(#clipPath2)"/>
      <path d="M48.5488 302 L36.5488 297 L39.5488 302 L36.5488 307 Z" clip-path="url(#clipPath2)" stroke="none"/>
      <path fill="none" d="M140.8514 30 L55.7576 30 L55.7576 232 L90.6045 232" clip-path="url(#clipPath2)"/>
      <path d="M98.6045 232 L86.6045 227 L89.6045 232 L86.6045 237 Z" clip-path="url(#clipPath2)" stroke="none"/>
      <path fill="none" d="M204.4764 6 L0 6 L0 442 L2.459 442" clip-path="url(#clipPath2)"/>
      <path d="M10.459 442 L-1.541 437 L1.459 442 L-1.541 447 Z" clip-path="url(#clipPath2)" stroke="none"/>
      <path fill="none" d="M462.1097 442 L480.8228 442" clip-path="url(#clipPath2)"/>
      <path d="M488.8228 442 L476.8228 437 L479.8228 442 L476.8228 447 Z" clip-path="url(#clipPath2)" stroke="none"/>
      <path fill="none" d="M394.3023 372 L480.8228 372" clip-path="url(#clipPath2)"/>
      <path d="M488.8228 372 L476.8228 367 L479.8228 372 L476.8228 377 Z" clip-path="url(#clipPath2)" stroke="none"/>
      <path fill="none" d="M373.9634 232 L483.6027 232" clip-path="url(#clipPath2)"/>
      <path d="M491.6027 232 L479.6027 227 L482.6027 232 L479.6027 237 Z" clip-path="url(#clipPath2)" stroke="none"/>
      <path fill="none" d="M424.061 302 L469.2035 302" clip-path="url(#clipPath2)"/>
      <path d="M477.2035 302 L465.2035 297 L468.2035 302 L465.2035 307 Z" clip-path="url(#clipPath2)" stroke="none"/>
      <path fill="none" d="M204.4764 38 L66.7576 38 L66.7576 162 L90.6152 162" clip-path="url(#clipPath2)"/>
      <path d="M98.6152 162 L86.6152 157 L89.6152 162 L86.6152 167 Z" clip-path="url(#clipPath2)" stroke="none"/>
      <path fill="none" d="M373.9634 162 L482.5995 162" clip-path="url(#clipPath2)"/>
      <path d="M490.5995 162 L478.5995 157 L481.5995 162 L478.5995 167 Z" clip-path="url(#clipPath2)" stroke="none"/>
      <path fill="none" d="M236.3049 42 L236.3049 64" clip-path="url(#clipPath2)"/>
      <path d="M236.3049 72 L241.3049 60 L236.3049 63 L231.3049 60 Z" clip-path="url(#clipPath2)" stroke="none"/>
      <path fill="none" d="M373.9634 92 L484.2715 92" clip-path="url(#clipPath2)"/>
      <path d="M492.2715 92 L480.2715 87 L483.2715 92 L480.2715 97 Z" clip-path="url(#clipPath2)" stroke="none"/>
      <path fill="none" d="M523.2291 22 L403.3521 22" clip-path="url(#clipPath2)"/>
      <path d="M395.3521 22 L407.3521 27 L404.3521 22 L407.3521 17 Z" clip-path="url(#clipPath2)" stroke="none"/>
    </g>
  </g>
</svg>
