<?xml version="1.0" encoding="UTF-8"?><svg xmlns="http://www.w3.org/2000/svg" xmlns:xlink="http://www.w3.org/1999/xlink" fill-opacity="1" color-rendering="auto" color-interpolation="auto" text-rendering="auto" stroke="black" stroke-linecap="square" width="684" stroke-miterlimit="10" shape-rendering="auto" stroke-opacity="1" fill="black" stroke-dasharray="none" font-weight="normal" stroke-width="1" height="369" font-family="'Dialog'" font-style="normal" stroke-linejoin="miter" font-size="12px" stroke-dashoffset="0" image-rendering="auto">
  <!--Generated by ySVG 2.6-->
  <defs id="genericDefs"/>
  <g>
    <defs id="defs1">
      <linearGradient x1="132.5202" gradientUnits="userSpaceOnUse" x2="212.5202" y1="0" y2="40" id="linearGradient1" spreadMethod="reflect">
        <stop stop-opacity="1" stop-color="rgb(0,153,153)" offset="0%"/>
        <stop stop-opacity="1" stop-color="rgb(0,153,153)" offset="100%"/>
      </linearGradient>
      <linearGradient x1="63.1536" gradientUnits="userSpaceOnUse" x2="281.8869" y1="158.7012" y2="198.7012" id="linearGradient2" spreadMethod="reflect">
        <stop stop-opacity="1" stop-color="rgb(39,43,52)" offset="0%"/>
        <stop stop-opacity="1" stop-color="rgb(39,43,52)" offset="100%"/>
      </linearGradient>
      <linearGradient x1="72.7536" gradientUnits="userSpaceOnUse" x2="272.2869" y1="228.7012" y2="268.7012" id="linearGradient3" spreadMethod="reflect">
        <stop stop-opacity="1" stop-color="rgb(39,43,52)" offset="0%"/>
        <stop stop-opacity="1" stop-color="rgb(39,43,52)" offset="100%"/>
      </linearGradient>
      <linearGradient x1="92.9808" gradientUnits="userSpaceOnUse" x2="252.0597" y1="298.7012" y2="338.7012" id="linearGradient4" spreadMethod="reflect">
        <stop stop-opacity="1" stop-color="rgb(39,43,52)" offset="0%"/>
        <stop stop-opacity="1" stop-color="rgb(39,43,52)" offset="100%"/>
      </linearGradient>
      <linearGradient x1="10.0002" gradientUnits="userSpaceOnUse" x2="335.0403" y1="70" y2="110" id="linearGradient5" spreadMethod="reflect">
        <stop stop-opacity="1" stop-color="rgb(39,43,52)" offset="0%"/>
        <stop stop-opacity="1" stop-color="rgb(39,43,52)" offset="100%"/>
      </linearGradient>
      <linearGradient x1="383.7417" gradientUnits="userSpaceOnUse" x2="663.6734" y1="70" y2="110" id="linearGradient6" spreadMethod="reflect">
        <stop stop-opacity="1" stop-color="rgb(39,43,52)" offset="0%"/>
        <stop stop-opacity="1" stop-color="rgb(39,43,52)" offset="100%"/>
      </linearGradient>
      <clipPath clipPathUnits="userSpaceOnUse" id="clipPath1">
        <path d="M0 0 L684 0 L684 369 L0 369 L0 0 Z"/>
      </clipPath>
      <clipPath clipPathUnits="userSpaceOnUse" id="clipPath2">
        <path d="M-5 -15 L679 -15 L679 354 L-5 354 L-5 -15 Z"/>
      </clipPath>
    </defs>
    <g fill="url(#linearGradient1)" text-rendering="geometricPrecision" shape-rendering="geometricPrecision" transform="matrix(1,0,0,1,5,15)" stroke="url(#linearGradient1)">
      <circle r="20" clip-path="url(#clipPath2)" cx="172.5202" cy="20" stroke="none"/>
    </g>
    <g text-rendering="geometricPrecision" stroke-miterlimit="1.45" shape-rendering="geometricPrecision" transform="matrix(1,0,0,1,5,15)" stroke-linecap="butt">
      <circle fill="none" r="20" clip-path="url(#clipPath2)" cx="172.5202" cy="20"/>
      <text x="159.7468" y="24.1016" clip-path="url(#clipPath2)" fill="white" font-family="'Roboto'" stroke="none" xml:space="preserve">Start</text>
    </g>
    <g fill="url(#linearGradient2)" text-rendering="geometricPrecision" shape-rendering="geometricPrecision" transform="matrix(1,0,0,1,5,15)" stroke="url(#linearGradient2)">
      <path d="M63.1536 158.7012 L281.8869 158.7012 L281.8869 198.7012 L63.1536 198.7012 Z" stroke="none" clip-path="url(#clipPath2)"/>
    </g>
    <g stroke-linecap="butt" transform="matrix(1,0,0,1,5,15)" fill="rgb(0,153,153)" text-rendering="geometricPrecision" shape-rendering="geometricPrecision" stroke="rgb(0,153,153)" stroke-miterlimit="1.45">
      <path fill="none" d="M63.1536 158.7012 L281.8869 158.7012 L281.8869 198.7012 L63.1536 198.7012 Z" clip-path="url(#clipPath2)"/>
      <text x="69.9636" y="182.8027" clip-path="url(#clipPath2)" fill="white" font-family="'Roboto'" stroke="none" xml:space="preserve">Remove iron ore (1) from the inventory</text>
    </g>
    <g fill="url(#linearGradient3)" text-rendering="geometricPrecision" shape-rendering="geometricPrecision" transform="matrix(1,0,0,1,5,15)" stroke="url(#linearGradient3)">
      <path d="M72.7536 228.7012 L272.2869 228.7012 L272.2869 268.7012 L72.7536 268.7012 Z" stroke="none" clip-path="url(#clipPath2)"/>
    </g>
    <g stroke-linecap="butt" transform="matrix(1,0,0,1,5,15)" fill="rgb(0,153,153)" text-rendering="geometricPrecision" shape-rendering="geometricPrecision" stroke="rgb(0,153,153)" stroke-miterlimit="1.45">
      <path fill="none" d="M72.7536 228.7012 L272.2869 228.7012 L272.2869 268.7012 L72.7536 268.7012 Z" clip-path="url(#clipPath2)"/>
      <text x="83.449" y="252.8027" clip-path="url(#clipPath2)" fill="white" font-family="'Roboto'" stroke="none" xml:space="preserve">Add iron ingot (1) to the inventory</text>
    </g>
    <g fill="url(#linearGradient4)" text-rendering="geometricPrecision" shape-rendering="geometricPrecision" transform="matrix(1,0,0,1,5,15)" stroke="url(#linearGradient4)">
      <path d="M92.9808 318.7012 Q97.9808 303.7012 112.9808 298.7012 L247.0597 298.7012 Q257.0597 318.7012 247.0597 338.7012 L112.9808 338.7012 Q97.9808 333.7012 92.9808 318.7012" stroke="none" clip-path="url(#clipPath2)"/>
    </g>
    <g stroke-linecap="butt" transform="matrix(1,0,0,1,5,15)" fill="rgb(0,153,153)" text-rendering="geometricPrecision" shape-rendering="geometricPrecision" stroke="rgb(0,153,153)" stroke-miterlimit="1.45">
      <path fill="none" d="M92.9808 318.7012 Q97.9808 303.7012 112.9808 298.7012 L247.0597 298.7012 Q257.0597 318.7012 247.0597 338.7012 L112.9808 338.7012 Q97.9808 333.7012 92.9808 318.7012" clip-path="url(#clipPath2)"/>
      <text x="106.2156" y="322.8027" clip-path="url(#clipPath2)" fill="white" font-family="'Roboto'" stroke="none" xml:space="preserve">Print "Crafted Iron Ingot."</text>
    </g>
    <g fill="url(#linearGradient5)" text-rendering="geometricPrecision" shape-rendering="geometricPrecision" transform="matrix(1,0,0,1,5,15)" stroke="url(#linearGradient5)">
      <path d="M172.5202 70 L335.0403 90 L172.5202 110 L10.0002 90 Z" stroke="none" clip-path="url(#clipPath2)"/>
    </g>
    <g stroke-linecap="butt" transform="matrix(1,0,0,1,5,15)" fill="rgb(0,153,153)" text-rendering="geometricPrecision" shape-rendering="geometricPrecision" stroke="rgb(0,153,153)" stroke-miterlimit="1.45">
      <path fill="none" d="M172.5202 70 L335.0403 90 L172.5202 110 L10.0002 90 Z" clip-path="url(#clipPath2)"/>
      <text x="77.7243" y="94.1016" clip-path="url(#clipPath2)" fill="white" font-family="'Roboto'" stroke="none" xml:space="preserve">If the inventory contains iron ore (3)</text>
    </g>
    <g fill="url(#linearGradient6)" text-rendering="geometricPrecision" shape-rendering="geometricPrecision" transform="matrix(1,0,0,1,5,15)" stroke="url(#linearGradient6)">
      <path d="M383.7417 90 Q388.7417 75 403.7417 70 L658.6734 70 Q668.6734 90 658.6734 110 L403.7417 110 Q388.7417 105 383.7417 90" stroke="none" clip-path="url(#clipPath2)"/>
    </g>
    <g stroke-linecap="butt" transform="matrix(1,0,0,1,5,15)" fill="rgb(0,153,153)" text-rendering="geometricPrecision" shape-rendering="geometricPrecision" stroke="rgb(0,153,153)" stroke-miterlimit="1.45">
      <path fill="none" d="M383.7417 90 Q388.7417 75 403.7417 70 L658.6734 70 Q668.6734 90 658.6734 110 L403.7417 110 Q388.7417 105 383.7417 90" clip-path="url(#clipPath2)"/>
      <text x="398.4048" y="94.1016" clip-path="url(#clipPath2)" fill="white" font-family="'Roboto'" stroke="none" xml:space="preserve">Print "Insufficient resources to craft Iron Ingot."</text>
    </g>
    <g stroke-linecap="butt" transform="matrix(1,0,0,1,5,15)" fill="rgb(0,153,153)" text-rendering="geometricPrecision" shape-rendering="geometricPrecision" stroke="rgb(0,153,153)" stroke-miterlimit="1.45">
      <path fill="none" d="M172.5202 198.7012 L172.5202 220.6719" clip-path="url(#clipPath2)"/>
    </g>
    <g stroke-linecap="butt" transform="matrix(1,0,0,1,5,15)" fill="rgb(0,153,153)" text-rendering="geometricPrecision" shape-rendering="geometricPrecision" stroke="rgb(0,153,153)" stroke-miterlimit="1.45">
      <path d="M172.5202 228.6719 L177.5202 216.6719 L172.5202 219.6719 L167.5202 216.6719 Z" stroke="none" clip-path="url(#clipPath2)"/>
      <path fill="none" d="M172.5202 268.7012 L172.5202 290.6719" clip-path="url(#clipPath2)"/>
      <path d="M172.5202 298.6719 L177.5202 286.6719 L172.5202 289.6719 L167.5202 286.6719 Z" clip-path="url(#clipPath2)" stroke="none"/>
      <path fill="none" d="M172.5202 40 L172.5202 62" clip-path="url(#clipPath2)"/>
      <path d="M172.5202 70 L177.5202 58 L172.5202 61 L167.5202 58 Z" clip-path="url(#clipPath2)" stroke="none"/>
      <path fill="none" d="M172.5202 110 L172.5202 150.6536" clip-path="url(#clipPath2)"/>
      <path d="M172.5202 158.6536 L177.5202 146.6536 L172.5202 149.6536 L167.5202 146.6536 Z" clip-path="url(#clipPath2)" stroke="none"/>
      <text x="143.8464" y="134.1895" clip-path="url(#clipPath2)" fill="white" font-family="sans-serif" stroke="none" xml:space="preserve">True</text>
      <path fill="none" d="M335.0878 90 L375.6942 90" clip-path="url(#clipPath2)"/>
      <path d="M383.6942 90 L371.6942 85 L374.6942 90 L371.6942 95 Z" clip-path="url(#clipPath2)" stroke="none"/>
      <text x="344.7191" y="83.3633" clip-path="url(#clipPath2)" fill="white" font-family="sans-serif" stroke="none" xml:space="preserve">False</text>
    </g>
  </g>
</svg>
