<?xml version="1.0" encoding="UTF-8"?><svg xmlns="http://www.w3.org/2000/svg" xmlns:xlink="http://www.w3.org/1999/xlink" fill-opacity="1" color-rendering="auto" color-interpolation="auto" text-rendering="auto" stroke="black" stroke-linecap="square" width="732" stroke-miterlimit="10" shape-rendering="auto" stroke-opacity="1" fill="black" stroke-dasharray="none" font-weight="normal" stroke-width="1" height="947" font-family="'Dialog'" font-style="normal" stroke-linejoin="miter" font-size="12px" stroke-dashoffset="0" image-rendering="auto">
  <!--Generated by ySVG 2.6-->
  <defs id="genericDefs"/>
  <g>
    <defs id="defs1">
      <linearGradient x1="459.4298" gradientUnits="userSpaceOnUse" x2="565.8568" y1="0" y2="40" id="linearGradient1" spreadMethod="reflect">
        <stop stop-opacity="1" stop-color="rgb(39,43,52)" offset="0%"/>
        <stop stop-opacity="1" stop-color="rgb(39,43,52)" offset="100%"/>
      </linearGradient>
      <linearGradient x1="398.4879" gradientUnits="userSpaceOnUse" x2="626.7986" y1="70" y2="110" id="linearGradient2" spreadMethod="reflect">
        <stop stop-opacity="1" stop-color="rgb(39,43,52)" offset="0%"/>
        <stop stop-opacity="1" stop-color="rgb(39,43,52)" offset="100%"/>
      </linearGradient>
      <linearGradient x1="203.5805" gradientUnits="userSpaceOnUse" x2="350.4251" y1="70" y2="110" id="linearGradient3" spreadMethod="reflect">
        <stop stop-opacity="1" stop-color="rgb(39,43,52)" offset="0%"/>
        <stop stop-opacity="1" stop-color="rgb(39,43,52)" offset="100%"/>
      </linearGradient>
      <linearGradient x1="10.0003" gradientUnits="userSpaceOnUse" x2="544.0053" y1="158.0625" y2="198.0625" id="linearGradient4" spreadMethod="reflect">
        <stop stop-opacity="1" stop-color="rgb(39,43,52)" offset="0%"/>
        <stop stop-opacity="1" stop-color="rgb(39,43,52)" offset="100%"/>
      </linearGradient>
      <linearGradient x1="189.7138" gradientUnits="userSpaceOnUse" x2="364.2918" y1="228.0625" y2="268.0625" id="linearGradient5" spreadMethod="reflect">
        <stop stop-opacity="1" stop-color="rgb(39,43,52)" offset="0%"/>
        <stop stop-opacity="1" stop-color="rgb(39,43,52)" offset="100%"/>
      </linearGradient>
      <linearGradient x1="205.5816" gradientUnits="userSpaceOnUse" x2="348.4239" y1="298.0625" y2="338.0625" id="linearGradient6" spreadMethod="reflect">
        <stop stop-opacity="1" stop-color="rgb(39,43,52)" offset="0%"/>
        <stop stop-opacity="1" stop-color="rgb(39,43,52)" offset="100%"/>
      </linearGradient>
      <linearGradient x1="103.8679" gradientUnits="userSpaceOnUse" x2="450.1376" y1="368.0625" y2="408.0625" id="linearGradient7" spreadMethod="reflect">
        <stop stop-opacity="1" stop-color="rgb(39,43,52)" offset="0%"/>
        <stop stop-opacity="1" stop-color="rgb(39,43,52)" offset="100%"/>
      </linearGradient>
      <linearGradient x1="216.0167" gradientUnits="userSpaceOnUse" x2="337.9889" y1="508.0625" y2="548.0625" id="linearGradient8" spreadMethod="reflect">
        <stop stop-opacity="1" stop-color="rgb(39,43,52)" offset="0%"/>
        <stop stop-opacity="1" stop-color="rgb(39,43,52)" offset="100%"/>
      </linearGradient>
      <linearGradient x1="67.1708" gradientUnits="userSpaceOnUse" x2="486.8348" y1="578.0625" y2="618.0625" id="linearGradient9" spreadMethod="reflect">
        <stop stop-opacity="1" stop-color="rgb(39,43,52)" offset="0%"/>
        <stop stop-opacity="1" stop-color="rgb(39,43,52)" offset="100%"/>
      </linearGradient>
      <linearGradient x1="187.8436" gradientUnits="userSpaceOnUse" x2="366.1619" y1="666.125" y2="706.125" id="linearGradient10" spreadMethod="reflect">
        <stop stop-opacity="1" stop-color="rgb(39,43,52)" offset="0%"/>
        <stop stop-opacity="1" stop-color="rgb(39,43,52)" offset="100%"/>
      </linearGradient>
      <linearGradient x1="94.105" gradientUnits="userSpaceOnUse" x2="459.9005" y1="736.125" y2="776.125" id="linearGradient11" spreadMethod="reflect">
        <stop stop-opacity="1" stop-color="rgb(39,43,52)" offset="0%"/>
        <stop stop-opacity="1" stop-color="rgb(39,43,52)" offset="100%"/>
      </linearGradient>
      <linearGradient x1="237.0028" gradientUnits="userSpaceOnUse" x2="317.0028" y1="806.125" y2="846.125" id="linearGradient12" spreadMethod="reflect">
        <stop stop-opacity="1" stop-color="rgb(39,43,52)" offset="0%"/>
        <stop stop-opacity="1" stop-color="rgb(39,43,52)" offset="100%"/>
      </linearGradient>
      <linearGradient x1="237.0028" gradientUnits="userSpaceOnUse" x2="317.0028" y1="438.0625" y2="478.0625" id="linearGradient13" spreadMethod="reflect">
        <stop stop-opacity="1" stop-color="rgb(39,43,52)" offset="0%"/>
        <stop stop-opacity="1" stop-color="rgb(39,43,52)" offset="100%"/>
      </linearGradient>
      <linearGradient x1="237.0028" gradientUnits="userSpaceOnUse" x2="317.0028" y1="0" y2="40" id="linearGradient14" spreadMethod="reflect">
        <stop stop-opacity="1" stop-color="rgb(0,153,153)" offset="0%"/>
        <stop stop-opacity="1" stop-color="rgb(0,153,153)" offset="100%"/>
      </linearGradient>
      <linearGradient x1="219.5948" gradientUnits="userSpaceOnUse" x2="334.4108" y1="876.125" y2="916.125" id="linearGradient15" spreadMethod="reflect">
        <stop stop-opacity="1" stop-color="rgb(39,43,52)" offset="0%"/>
        <stop stop-opacity="1" stop-color="rgb(39,43,52)" offset="100%"/>
      </linearGradient>
      <linearGradient x1="547.8595" gradientUnits="userSpaceOnUse" x2="653.6643" y1="736.125" y2="776.125" id="linearGradient16" spreadMethod="reflect">
        <stop stop-opacity="1" stop-color="rgb(39,43,52)" offset="0%"/>
        <stop stop-opacity="1" stop-color="rgb(39,43,52)" offset="100%"/>
      </linearGradient>
      <linearGradient x1="489.9011" gradientUnits="userSpaceOnUse" x2="711.6227" y1="666.125" y2="706.125" id="linearGradient17" spreadMethod="reflect">
        <stop stop-opacity="1" stop-color="rgb(39,43,52)" offset="0%"/>
        <stop stop-opacity="1" stop-color="rgb(39,43,52)" offset="100%"/>
      </linearGradient>
      <clipPath clipPathUnits="userSpaceOnUse" id="clipPath1">
        <path d="M0 0 L732 0 L732 947 L0 947 L0 0 Z"/>
      </clipPath>
      <clipPath clipPathUnits="userSpaceOnUse" id="clipPath2">
        <path d="M-5 -15 L727 -15 L727 932 L-5 932 L-5 -15 Z"/>
      </clipPath>
    </defs>
    <g fill="url(#linearGradient1)" text-rendering="geometricPrecision" shape-rendering="geometricPrecision" transform="matrix(1,0,0,1,5,15)" stroke="url(#linearGradient1)">
      <path d="M459.4298 20 Q464.4298 5 479.4298 0 L560.8568 0 Q570.8568 20 560.8568 40 L479.4298 40 Q464.4298 35 459.4298 20" stroke="none" clip-path="url(#clipPath2)"/>
    </g>
    <g stroke-linecap="butt" transform="matrix(1,0,0,1,5,15)" fill="rgb(0,153,153)" text-rendering="geometricPrecision" shape-rendering="geometricPrecision" stroke="rgb(0,153,153)" stroke-miterlimit="1.45">
      <path fill="none" d="M459.4298 20 Q464.4298 5 479.4298 0 L560.8568 0 Q570.8568 20 560.8568 40 L479.4298 40 Q464.4298 35 459.4298 20" clip-path="url(#clipPath2)"/>
      <text x="468.736" y="24.1016" clip-path="url(#clipPath2)" fill="white" font-family="'Roboto'" stroke="none" xml:space="preserve">Print "Inventory:"</text>
    </g>
    <g fill="url(#linearGradient2)" text-rendering="geometricPrecision" shape-rendering="geometricPrecision" transform="matrix(1,0,0,1,5,15)" stroke="url(#linearGradient2)">
      <path d="M398.4879 90 Q403.4879 75 418.4879 70 L621.7986 70 Q631.7986 90 621.7986 110 L418.4879 110 Q403.4879 105 398.4879 90" stroke="none" clip-path="url(#clipPath2)"/>
    </g>
    <g stroke-linecap="butt" transform="matrix(1,0,0,1,5,15)" fill="rgb(0,153,153)" text-rendering="geometricPrecision" shape-rendering="geometricPrecision" stroke="rgb(0,153,153)" stroke-miterlimit="1.45">
      <path fill="none" d="M398.4879 90 Q403.4879 75 418.4879 70 L621.7986 70 Q631.7986 90 621.7986 110 L418.4879 110 Q403.4879 105 398.4879 90" clip-path="url(#clipPath2)"/>
      <text x="404.9391" y="94.1016" clip-path="url(#clipPath2)" fill="white" font-family="'Roboto'" stroke="none" xml:space="preserve">Print yellow block + "Empty" + empty line</text>
    </g>
    <g fill="url(#linearGradient3)" text-rendering="geometricPrecision" shape-rendering="geometricPrecision" transform="matrix(1,0,0,1,5,15)" stroke="url(#linearGradient3)">
      <path d="M277.0028 70 L350.4251 90 L277.0028 110 L203.5805 90 Z" stroke="none" clip-path="url(#clipPath2)"/>
    </g>
    <g stroke-linecap="butt" transform="matrix(1,0,0,1,5,15)" fill="rgb(0,153,153)" text-rendering="geometricPrecision" shape-rendering="geometricPrecision" stroke="rgb(0,153,153)" stroke-miterlimit="1.45">
      <path fill="none" d="M277.0028 70 L350.4251 90 L277.0028 110 L203.5805 90 Z" clip-path="url(#clipPath2)"/>
      <text x="223.2664" y="94.1016" clip-path="url(#clipPath2)" fill="white" font-family="'Roboto'" stroke="none" xml:space="preserve">If inventory is empty</text>
    </g>
    <g fill="url(#linearGradient4)" text-rendering="geometricPrecision" shape-rendering="geometricPrecision" transform="matrix(1,0,0,1,5,15)" stroke="url(#linearGradient4)">
      <path d="M20.2003 158.0625 L544.0053 158.0625 L533.8053 198.0625 L10.0003 198.0625 Z" stroke="none" clip-path="url(#clipPath2)"/>
    </g>
    <g stroke-linecap="butt" transform="matrix(1,0,0,1,5,15)" fill="rgb(0,153,153)" text-rendering="geometricPrecision" shape-rendering="geometricPrecision" stroke="rgb(0,153,153)" stroke-miterlimit="1.45">
      <path fill="none" d="M20.2003 158.0625 L544.0053 158.0625 L533.8053 198.0625 L10.0003 198.0625 Z" clip-path="url(#clipPath2)"/>
      <text x="26.1073" y="182.1641" clip-path="url(#clipPath2)" fill="white" font-family="'Roboto'" stroke="none" xml:space="preserve">Create empty array blockCounts with seven spots, because there are seven blocks in the game</text>
    </g>
    <g fill="url(#linearGradient5)" text-rendering="geometricPrecision" shape-rendering="geometricPrecision" transform="matrix(1,0,0,1,5,15)" stroke="url(#linearGradient5)">
      <path d="M199.7138 228.0625 L354.2918 228.0625 L364.2918 238.0625 L364.2918 268.0625 L189.7138 268.0625 L189.7138 238.0625 Z" stroke="none" clip-path="url(#clipPath2)"/>
    </g>
    <g stroke-linecap="butt" transform="matrix(1,0,0,1,5,15)" fill="rgb(0,153,153)" text-rendering="geometricPrecision" shape-rendering="geometricPrecision" stroke="rgb(0,153,153)" stroke-miterlimit="1.45">
      <path fill="none" d="M199.7138 228.0625 L354.2918 228.0625 L364.2918 238.0625 L364.2918 268.0625 L189.7138 268.0625 L189.7138 238.0625 Z" clip-path="url(#clipPath2)"/>
      <text x="193.4598" y="252.1641" clip-path="url(#clipPath2)" fill="white" font-family="'Roboto'" stroke="none" xml:space="preserve">For each item in inventory array</text>
    </g>
    <g fill="url(#linearGradient6)" text-rendering="geometricPrecision" shape-rendering="geometricPrecision" transform="matrix(1,0,0,1,5,15)" stroke="url(#linearGradient6)">
      <path d="M215.7816 298.0625 L348.4239 298.0625 L338.2239 338.0625 L205.5816 338.0625 Z" stroke="none" clip-path="url(#clipPath2)"/>
    </g>
    <g stroke-linecap="butt" transform="matrix(1,0,0,1,5,15)" fill="rgb(0,153,153)" text-rendering="geometricPrecision" shape-rendering="geometricPrecision" stroke="rgb(0,153,153)" stroke-miterlimit="1.45">
      <path fill="none" d="M215.7816 298.0625 L348.4239 298.0625 L338.2239 338.0625 L205.5816 338.0625 Z" clip-path="url(#clipPath2)"/>
      <text x="211.6883" y="322.1641" clip-path="url(#clipPath2)" fill="white" font-family="'Roboto'" stroke="none" xml:space="preserve">Get block from inventory</text>
    </g>
    <g fill="url(#linearGradient7)" text-rendering="geometricPrecision" shape-rendering="geometricPrecision" transform="matrix(1,0,0,1,5,15)" stroke="url(#linearGradient7)">
      <path d="M114.0679 368.0625 L450.1376 368.0625 L439.9377 408.0625 L103.8679 408.0625 Z" stroke="none" clip-path="url(#clipPath2)"/>
    </g>
    <g stroke-linecap="butt" transform="matrix(1,0,0,1,5,15)" fill="rgb(0,153,153)" text-rendering="geometricPrecision" shape-rendering="geometricPrecision" stroke="rgb(0,153,153)" stroke-miterlimit="1.45">
      <path fill="none" d="M114.0679 368.0625 L450.1376 368.0625 L439.9377 408.0625 L103.8679 408.0625 Z" clip-path="url(#clipPath2)"/>
      <text x="112.0643" y="392.1641" clip-path="url(#clipPath2)" fill="white" font-family="'Roboto'" stroke="none" xml:space="preserve">Add 1 to blockCounts array in corresponding spot in that array</text>
    </g>
    <g fill="url(#linearGradient8)" text-rendering="geometricPrecision" shape-rendering="geometricPrecision" transform="matrix(1,0,0,1,5,15)" stroke="url(#linearGradient8)">
      <path d="M216.0167 528.0625 Q221.0167 513.0625 236.0167 508.0625 L332.9889 508.0625 Q342.9889 528.0625 332.9889 548.0625 L236.0167 548.0625 Q221.0167 543.0625 216.0167 528.0625" stroke="none" clip-path="url(#clipPath2)"/>
    </g>
    <g stroke-linecap="butt" transform="matrix(1,0,0,1,5,15)" fill="rgb(0,153,153)" text-rendering="geometricPrecision" shape-rendering="geometricPrecision" stroke="rgb(0,153,153)" stroke-miterlimit="1.45">
      <path fill="none" d="M216.0167 528.0625 Q221.0167 513.0625 236.0167 508.0625 L332.9889 508.0625 Q342.9889 528.0625 332.9889 548.0625 L236.0167 548.0625 Q221.0167 543.0625 216.0167 528.0625" clip-path="url(#clipPath2)"/>
      <text x="221.2713" y="532.1641" clip-path="url(#clipPath2)" fill="white" font-family="'Roboto'" stroke="none" xml:space="preserve">Print "Crafted Items:"</text>
    </g>
    <g fill="url(#linearGradient9)" text-rendering="geometricPrecision" shape-rendering="geometricPrecision" transform="matrix(1,0,0,1,5,15)" stroke="url(#linearGradient9)">
      <path d="M277.0028 578.0625 L486.8348 598.0625 L277.0028 618.0625 L67.1708 598.0625 Z" stroke="none" clip-path="url(#clipPath2)"/>
    </g>
    <g stroke-linecap="butt" transform="matrix(1,0,0,1,5,15)" fill="rgb(0,153,153)" text-rendering="geometricPrecision" shape-rendering="geometricPrecision" stroke="rgb(0,153,153)" stroke-miterlimit="1.45">
      <path fill="none" d="M277.0028 578.0625 L486.8348 598.0625 L277.0028 618.0625 L67.1708 598.0625 Z" clip-path="url(#clipPath2)"/>
      <text x="141.8094" y="602.1641" clip-path="url(#clipPath2)" fill="white" font-family="'Roboto'" stroke="none" xml:space="preserve">If crafted items list is null or crafted items is empty</text>
    </g>
    <g fill="url(#linearGradient10)" text-rendering="geometricPrecision" shape-rendering="geometricPrecision" transform="matrix(1,0,0,1,5,15)" stroke="url(#linearGradient10)">
      <path d="M197.8436 666.125 L356.1619 666.125 L366.1619 676.125 L366.1619 706.125 L187.8436 706.125 L187.8436 676.125 Z" stroke="none" clip-path="url(#clipPath2)"/>
    </g>
    <g stroke-linecap="butt" transform="matrix(1,0,0,1,5,15)" fill="rgb(0,153,153)" text-rendering="geometricPrecision" shape-rendering="geometricPrecision" stroke="rgb(0,153,153)" stroke-miterlimit="1.45">
      <path fill="none" d="M197.8436 666.125 L356.1619 666.125 L366.1619 676.125 L366.1619 706.125 L187.8436 706.125 L187.8436 676.125 Z" clip-path="url(#clipPath2)"/>
      <text x="189.1707" y="690.2266" clip-path="url(#clipPath2)" fill="white" font-family="'Roboto'" stroke="none" xml:space="preserve">For each item in craftedItems list</text>
    </g>
    <g fill="url(#linearGradient11)" text-rendering="geometricPrecision" shape-rendering="geometricPrecision" transform="matrix(1,0,0,1,5,15)" stroke="url(#linearGradient11)">
      <path d="M94.105 736.125 L454.9005 736.125 Q464.9005 756.125 454.9005 776.125 L94.105 776.125 Z" stroke="none" clip-path="url(#clipPath2)"/>
    </g>
    <g stroke-linecap="butt" transform="matrix(1,0,0,1,5,15)" fill="rgb(0,153,153)" text-rendering="geometricPrecision" shape-rendering="geometricPrecision" stroke="rgb(0,153,153)" stroke-miterlimit="1.45">
      <path fill="none" d="M94.105 736.125 L454.9005 736.125 Q464.9005 756.125 454.9005 776.125 L94.105 776.125 Z" clip-path="url(#clipPath2)"/>
      <text x="117.9178" y="760.2266" clip-path="url(#clipPath2)" fill="white" font-family="'Roboto'" stroke="none" xml:space="preserve">Print coloured block of item + name of item +"," + empty line</text>
    </g>
    <g fill="url(#linearGradient12)" text-rendering="geometricPrecision" shape-rendering="geometricPrecision" transform="matrix(1,0,0,1,5,15)" stroke="url(#linearGradient12)">
      <path d="M237.0028 806.125 L317.0028 806.125 L317.0028 836.125 L307.0028 846.125 L247.0028 846.125 L237.0028 836.125 Z" stroke="none" clip-path="url(#clipPath2)"/>
    </g>
    <g stroke-linecap="butt" transform="matrix(1,0,0,1,5,15)" fill="rgb(0,153,153)" text-rendering="geometricPrecision" shape-rendering="geometricPrecision" stroke="rgb(0,153,153)" stroke-miterlimit="1.45">
      <path fill="none" d="M237.0028 806.125 L317.0028 806.125 L317.0028 836.125 L307.0028 846.125 L247.0028 846.125 L237.0028 836.125 Z" clip-path="url(#clipPath2)"/>
      <text x="246.7567" y="830.2266" clip-path="url(#clipPath2)" fill="white" font-family="'Roboto'" stroke="none" xml:space="preserve">End of loop</text>
    </g>
    <g fill="url(#linearGradient13)" text-rendering="geometricPrecision" shape-rendering="geometricPrecision" transform="matrix(1,0,0,1,5,15)" stroke="url(#linearGradient13)">
      <path d="M237.0028 438.0625 L317.0028 438.0625 L317.0028 468.0625 L307.0028 478.0625 L247.0028 478.0625 L237.0028 468.0625 Z" stroke="none" clip-path="url(#clipPath2)"/>
    </g>
    <g stroke-linecap="butt" transform="matrix(1,0,0,1,5,15)" fill="rgb(0,153,153)" text-rendering="geometricPrecision" shape-rendering="geometricPrecision" stroke="rgb(0,153,153)" stroke-miterlimit="1.45">
      <path fill="none" d="M237.0028 438.0625 L317.0028 438.0625 L317.0028 468.0625 L307.0028 478.0625 L247.0028 478.0625 L237.0028 468.0625 Z" clip-path="url(#clipPath2)"/>
      <text x="244.9842" y="462.1641" clip-path="url(#clipPath2)" fill="white" font-family="'Roboto'" stroke="none" xml:space="preserve">End of Loop</text>
    </g>
    <g fill="url(#linearGradient14)" text-rendering="geometricPrecision" shape-rendering="geometricPrecision" transform="matrix(1,0,0,1,5,15)" stroke="url(#linearGradient14)">
      <circle r="20" clip-path="url(#clipPath2)" cx="277.0028" cy="20" stroke="none"/>
    </g>
    <g text-rendering="geometricPrecision" stroke-miterlimit="1.45" shape-rendering="geometricPrecision" transform="matrix(1,0,0,1,5,15)" stroke-linecap="butt">
      <circle fill="none" r="20" clip-path="url(#clipPath2)" cx="277.0028" cy="20"/>
      <text x="264.2293" y="24.1016" clip-path="url(#clipPath2)" fill="white" font-family="'Roboto'" stroke="none" xml:space="preserve">Start</text>
    </g>
    <g fill="url(#linearGradient15)" text-rendering="geometricPrecision" shape-rendering="geometricPrecision" transform="matrix(1,0,0,1,5,15)" stroke="url(#linearGradient15)">
      <path d="M219.5948 896.125 Q224.5948 881.125 239.5948 876.125 L329.4108 876.125 Q339.4108 896.125 329.4108 916.125 L239.5948 916.125 Q224.5948 911.125 219.5948 896.125" stroke="none" clip-path="url(#clipPath2)"/>
    </g>
    <g stroke-linecap="butt" transform="matrix(1,0,0,1,5,15)" fill="rgb(0,153,153)" text-rendering="geometricPrecision" shape-rendering="geometricPrecision" stroke="rgb(0,153,153)" stroke-miterlimit="1.45">
      <path fill="none" d="M219.5948 896.125 Q224.5948 881.125 239.5948 876.125 L329.4108 876.125 Q339.4108 896.125 329.4108 916.125 L239.5948 916.125 Q224.5948 911.125 219.5948 896.125" clip-path="url(#clipPath2)"/>
      <text x="235.4862" y="900.2266" clip-path="url(#clipPath2)" fill="white" font-family="'Roboto'" stroke="none" xml:space="preserve">Print empty line</text>
    </g>
    <g fill="url(#linearGradient16)" text-rendering="geometricPrecision" shape-rendering="geometricPrecision" transform="matrix(1,0,0,1,5,15)" stroke="url(#linearGradient16)">
      <path d="M547.8595 756.125 Q552.8595 741.125 567.8595 736.125 L648.6643 736.125 Q658.6643 756.125 648.6643 776.125 L567.8595 776.125 Q552.8595 771.125 547.8595 756.125" stroke="none" clip-path="url(#clipPath2)"/>
    </g>
    <g stroke-linecap="butt" transform="matrix(1,0,0,1,5,15)" fill="rgb(0,153,153)" text-rendering="geometricPrecision" shape-rendering="geometricPrecision" stroke="rgb(0,153,153)" stroke-miterlimit="1.45">
      <path fill="none" d="M547.8595 756.125 Q552.8595 741.125 567.8595 736.125 L648.6643 736.125 Q658.6643 756.125 648.6643 776.125 L567.8595 776.125 Q552.8595 771.125 547.8595 756.125" clip-path="url(#clipPath2)"/>
      <text x="559.2453" y="760.2266" clip-path="url(#clipPath2)" fill="white" font-family="'Roboto'" stroke="none" xml:space="preserve">Print empty line</text>
    </g>
    <g fill="url(#linearGradient17)" text-rendering="geometricPrecision" shape-rendering="geometricPrecision" transform="matrix(1,0,0,1,5,15)" stroke="url(#linearGradient17)">
      <path d="M489.9011 686.125 Q494.9011 671.125 509.9011 666.125 L706.6227 666.125 Q716.6227 686.125 706.6227 706.125 L509.9011 706.125 Q494.9011 701.125 489.9011 686.125" stroke="none" clip-path="url(#clipPath2)"/>
    </g>
    <g stroke-linecap="butt" transform="matrix(1,0,0,1,5,15)" fill="rgb(0,153,153)" text-rendering="geometricPrecision" shape-rendering="geometricPrecision" stroke="rgb(0,153,153)" stroke-miterlimit="1.45">
      <path fill="none" d="M489.9011 686.125 Q494.9011 671.125 509.9011 666.125 L706.6227 666.125 Q716.6227 686.125 706.6227 706.125 L509.9011 706.125 Q494.9011 701.125 489.9011 686.125" clip-path="url(#clipPath2)"/>
      <text x="496.6701" y="690.2266" clip-path="url(#clipPath2)" fill="white" font-family="'Roboto'" stroke="none" xml:space="preserve">Print yellow block + "none" + empty line</text>
    </g>
    <g stroke-linecap="butt" transform="matrix(1,0,0,1,5,15)" fill="rgb(0,153,153)" text-rendering="geometricPrecision" shape-rendering="geometricPrecision" stroke="rgb(0,153,153)" stroke-miterlimit="1.45">
      <path fill="none" d="M350.4251 90 L390.4879 90" clip-path="url(#clipPath2)"/>
    </g>
    <g stroke-linecap="butt" transform="matrix(1,0,0,1,5,15)" fill="rgb(0,153,153)" text-rendering="geometricPrecision" shape-rendering="geometricPrecision" stroke="rgb(0,153,153)" stroke-miterlimit="1.45">
      <path d="M398.4879 90 L386.4879 85 L389.4879 90 L386.4879 95 Z" stroke="none" clip-path="url(#clipPath2)"/>
      <text x="362.3598" y="83.0703" clip-path="url(#clipPath2)" fill="white" font-family="'Roboto'" stroke="none" xml:space="preserve">True</text>
      <path fill="none" d="M277.0028 110 L277.0028 150.0156" clip-path="url(#clipPath2)"/>
      <path d="M277.0028 158.0156 L282.0028 146.0156 L277.0028 149.0156 L272.0028 146.0156 Z" clip-path="url(#clipPath2)" stroke="none"/>
      <text x="244.3856" y="133.2578" clip-path="url(#clipPath2)" fill="white" font-family="'Roboto'" stroke="none" xml:space="preserve">False</text>
      <path fill="none" d="M277.0028 198.0625 L277.0028 220.0332" clip-path="url(#clipPath2)"/>
      <path d="M277.0028 228.0332 L282.0028 216.0332 L277.0028 219.0332 L272.0028 216.0332 Z" clip-path="url(#clipPath2)" stroke="none"/>
      <path fill="none" d="M277.0028 268.0625 L277.0028 290.0332" clip-path="url(#clipPath2)"/>
      <path d="M277.0028 298.0332 L282.0028 286.0332 L277.0028 289.0332 L272.0028 286.0332 Z" clip-path="url(#clipPath2)" stroke="none"/>
      <path fill="none" d="M277.0028 338.0625 L277.0028 360.0332" clip-path="url(#clipPath2)"/>
      <path d="M277.0028 368.0332 L282.0028 356.0332 L277.0028 359.0332 L272.0028 356.0332 Z" clip-path="url(#clipPath2)" stroke="none"/>
      <path fill="none" d="M277.0028 548.0625 L277.0028 570.0625" clip-path="url(#clipPath2)"/>
      <path d="M277.0028 578.0625 L282.0028 566.0625 L277.0028 569.0625 L272.0028 566.0625 Z" clip-path="url(#clipPath2)" stroke="none"/>
      <path fill="none" d="M277.0028 618.0625 L277.0028 658.0781" clip-path="url(#clipPath2)"/>
      <path d="M277.0028 666.0781 L282.0028 654.0781 L277.0028 657.0781 L272.0028 654.0781 Z" clip-path="url(#clipPath2)" stroke="none"/>
      <text x="244.3856" y="641.3203" clip-path="url(#clipPath2)" fill="white" font-family="'Roboto'" stroke="none" xml:space="preserve">False</text>
      <path fill="none" d="M277.0028 706.125 L277.0028 728.0957" clip-path="url(#clipPath2)"/>
      <path d="M277.0028 736.0957 L282.0028 724.0957 L277.0028 727.0957 L272.0028 724.0957 Z" clip-path="url(#clipPath2)" stroke="none"/>
      <path fill="none" d="M277.0028 776.125 L277.0028 798.0957" clip-path="url(#clipPath2)"/>
      <path d="M277.0028 806.0957 L282.0028 794.0957 L277.0028 797.0957 L272.0028 794.0957 Z" clip-path="url(#clipPath2)" stroke="none"/>
      <path fill="none" d="M317.0028 826.125 L474.9008 826.125 L474.9008 686.125 L374.1619 686.125" clip-path="url(#clipPath2)"/>
      <path d="M366.1619 686.125 L378.1619 691.125 L375.1619 686.125 L378.1619 681.125 Z" clip-path="url(#clipPath2)" stroke="none"/>
      <path fill="none" d="M277.0028 408.0625 L277.0028 430.0332" clip-path="url(#clipPath2)"/>
      <path d="M277.0028 438.0332 L282.0028 426.0332 L277.0028 429.0332 L272.0028 426.0332 Z" clip-path="url(#clipPath2)" stroke="none"/>
      <path fill="none" d="M277.0028 478.0625 L277.0028 500.0332" clip-path="url(#clipPath2)"/>
      <path d="M277.0028 508.0332 L282.0028 496.0332 L277.0028 499.0332 L272.0028 496.0332 Z" clip-path="url(#clipPath2)" stroke="none"/>
      <path fill="none" d="M317.0028 458.0625 L474.9008 458.0625 L474.9008 248.0625 L372.2918 248.0625" clip-path="url(#clipPath2)"/>
      <path d="M364.2918 248.0625 L376.2918 253.0625 L373.2918 248.0625 L376.2918 243.0625 Z" clip-path="url(#clipPath2)" stroke="none"/>
      <path fill="none" d="M277.0028 40 L277.0028 62" clip-path="url(#clipPath2)"/>
      <path d="M277.0028 70 L282.0028 58 L277.0028 61 L272.0028 58 Z" clip-path="url(#clipPath2)" stroke="none"/>
      <path fill="none" d="M297.0112 20 L451.3901 20" clip-path="url(#clipPath2)"/>
      <path d="M459.3901 20 L447.3901 15 L450.3901 20 L447.3901 25 Z" clip-path="url(#clipPath2)" stroke="none"/>
      <path fill="none" d="M277.0028 846.125 L277.0028 868.0957" clip-path="url(#clipPath2)"/>
      <path d="M277.0028 876.0957 L282.0028 864.0957 L277.0028 867.0957 L272.0028 864.0957 Z" clip-path="url(#clipPath2)" stroke="none"/>
      <path fill="none" d="M486.8626 598.0625 L600.7619 598.0625 L600.7619 658.0918" clip-path="url(#clipPath2)"/>
      <path d="M600.7619 666.0918 L605.7619 654.0918 L600.7619 657.0918 L595.7619 654.0918 Z" clip-path="url(#clipPath2)" stroke="none"/>
      <path fill="none" d="M600.7619 706.125 L600.7619 728.0957" clip-path="url(#clipPath2)"/>
      <path d="M600.7619 736.0957 L605.7619 724.0957 L600.7619 727.0957 L595.7619 724.0957 Z" clip-path="url(#clipPath2)" stroke="none"/>
    </g>
  </g>
</svg>
