<?xml version="1.0" encoding="UTF-8"?><svg xmlns="http://www.w3.org/2000/svg" xmlns:xlink="http://www.w3.org/1999/xlink" fill-opacity="1" color-rendering="auto" color-interpolation="auto" text-rendering="auto" stroke="black" stroke-linecap="square" width="1326" stroke-miterlimit="10" shape-rendering="auto" stroke-opacity="1" fill="black" stroke-dasharray="none" font-weight="normal" stroke-width="1" height="403" font-family="'Dialog'" font-style="normal" stroke-linejoin="miter" font-size="12px" stroke-dashoffset="0" image-rendering="auto">
  <!--Generated by ySVG 2.6-->
  <defs id="genericDefs"/>
  <g>
    <defs id="defs1">
      <linearGradient x1="636.7938" gradientUnits="userSpaceOnUse" x2="831.4125" y1="162.0625" y2="202.0625" id="linearGradient1" spreadMethod="reflect">
        <stop stop-opacity="1" stop-color="rgb(39,43,52)" offset="0%"/>
        <stop stop-opacity="1" stop-color="rgb(39,43,52)" offset="100%"/>
      </linearGradient>
      <linearGradient x1="1091.1774" gradientUnits="userSpaceOnUse" x2="1305.8977" y1="162.0625" y2="202.0625" id="linearGradient2" spreadMethod="reflect">
        <stop stop-opacity="1" stop-color="rgb(39,43,52)" offset="0%"/>
        <stop stop-opacity="1" stop-color="rgb(39,43,52)" offset="100%"/>
      </linearGradient>
      <linearGradient x1="207.3532" gradientUnits="userSpaceOnUse" x2="404.5683" y1="162.0625" y2="202.0625" id="linearGradient3" spreadMethod="reflect">
        <stop stop-opacity="1" stop-color="rgb(39,43,52)" offset="0%"/>
        <stop stop-opacity="1" stop-color="rgb(39,43,52)" offset="100%"/>
      </linearGradient>
      <linearGradient x1="434.5683" gradientUnits="userSpaceOnUse" x2="606.7936" y1="162.0625" y2="202.0625" id="linearGradient4" spreadMethod="reflect">
        <stop stop-opacity="1" stop-color="rgb(39,43,52)" offset="0%"/>
        <stop stop-opacity="1" stop-color="rgb(39,43,52)" offset="100%"/>
      </linearGradient>
      <linearGradient x1="10.0002" gradientUnits="userSpaceOnUse" x2="177.3529" y1="162.0625" y2="202.0625" id="linearGradient5" spreadMethod="reflect">
        <stop stop-opacity="1" stop-color="rgb(39,43,52)" offset="0%"/>
        <stop stop-opacity="1" stop-color="rgb(39,43,52)" offset="100%"/>
      </linearGradient>
      <linearGradient x1="861.4127" gradientUnits="userSpaceOnUse" x2="1058.3175" y1="162.0625" y2="202.0625" id="linearGradient6" spreadMethod="reflect">
        <stop stop-opacity="1" stop-color="rgb(39,43,52)" offset="0%"/>
        <stop stop-opacity="1" stop-color="rgb(39,43,52)" offset="100%"/>
      </linearGradient>
      <linearGradient x1="545.9521" gradientUnits="userSpaceOnUse" x2="922.2542" y1="232.0625" y2="302.4887" id="linearGradient7" spreadMethod="reflect">
        <stop stop-opacity="1" stop-color="rgb(39,43,52)" offset="0%"/>
        <stop stop-opacity="1" stop-color="rgb(39,43,52)" offset="100%"/>
      </linearGradient>
      <linearGradient x1="588.3029" gradientUnits="userSpaceOnUse" x2="879.9034" y1="332.4887" y2="372.4887" id="linearGradient8" spreadMethod="reflect">
        <stop stop-opacity="1" stop-color="rgb(39,43,52)" offset="0%"/>
        <stop stop-opacity="1" stop-color="rgb(39,43,52)" offset="100%"/>
      </linearGradient>
      <linearGradient x1="694.1031" gradientUnits="userSpaceOnUse" x2="774.1031" y1="0" y2="40" id="linearGradient9" spreadMethod="reflect">
        <stop stop-opacity="1" stop-color="rgb(0,153,153)" offset="0%"/>
        <stop stop-opacity="1" stop-color="rgb(0,153,153)" offset="100%"/>
      </linearGradient>
      <linearGradient x1="635.277" gradientUnits="userSpaceOnUse" x2="832.9294" y1="74" y2="114" id="linearGradient10" spreadMethod="reflect">
        <stop stop-opacity="1" stop-color="rgb(39,43,52)" offset="0%"/>
        <stop stop-opacity="1" stop-color="rgb(39,43,52)" offset="100%"/>
      </linearGradient>
      <clipPath clipPathUnits="userSpaceOnUse" id="clipPath1">
        <path d="M0 0 L1326 0 L1326 403 L0 403 L0 0 Z"/>
      </clipPath>
      <clipPath clipPathUnits="userSpaceOnUse" id="clipPath2">
        <path d="M-5 -15 L1321 -15 L1321 388 L-5 388 L-5 -15 Z"/>
      </clipPath>
    </defs>
    <g fill="url(#linearGradient1)" text-rendering="geometricPrecision" shape-rendering="geometricPrecision" transform="matrix(1,0,0,1,5,15)" stroke="url(#linearGradient1)">
      <path d="M646.9938 162.0625 L831.4125 162.0625 L821.2125 202.0625 L636.7938 202.0625 Z" stroke="none" clip-path="url(#clipPath2)"/>
    </g>
    <g stroke-linecap="butt" transform="matrix(1,0,0,1,5,15)" fill="rgb(0,153,153)" text-rendering="geometricPrecision" shape-rendering="geometricPrecision" stroke="rgb(0,153,153)" stroke-miterlimit="1.45">
      <path fill="none" d="M646.9938 162.0625 L831.4125 162.0625 L821.2125 202.0625 L636.7938 202.0625 Z" clip-path="url(#clipPath2)"/>
      <text x="672.5944" y="186.1641" clip-path="url(#clipPath2)" fill="white" font-family="'Roboto'" stroke="none" xml:space="preserve">set BlockColor to white</text>
    </g>
    <g fill="url(#linearGradient2)" text-rendering="geometricPrecision" shape-rendering="geometricPrecision" transform="matrix(1,0,0,1,5,15)" stroke="url(#linearGradient2)">
      <path d="M1101.3774 162.0625 L1305.8977 162.0625 L1295.6976 202.0625 L1091.1774 202.0625 Z" stroke="none" clip-path="url(#clipPath2)"/>
    </g>
    <g stroke-linecap="butt" transform="matrix(1,0,0,1,5,15)" fill="rgb(0,153,153)" text-rendering="geometricPrecision" shape-rendering="geometricPrecision" stroke="rgb(0,153,153)" stroke-miterlimit="1.45">
      <path fill="none" d="M1101.3774 162.0625 L1305.8977 162.0625 L1295.6976 202.0625 L1091.1774 202.0625 Z" clip-path="url(#clipPath2)"/>
      <text x="1098.5444" y="186.1641" clip-path="url(#clipPath2)" fill="white" font-family="'Roboto'" stroke="none" xml:space="preserve">return reset color and an empty string</text>
    </g>
    <g fill="url(#linearGradient3)" text-rendering="geometricPrecision" shape-rendering="geometricPrecision" transform="matrix(1,0,0,1,5,15)" stroke="url(#linearGradient3)">
      <path d="M217.5532 162.0625 L404.5683 162.0625 L394.3683 202.0625 L207.3532 202.0625 Z" stroke="none" clip-path="url(#clipPath2)"/>
    </g>
    <g stroke-linecap="butt" transform="matrix(1,0,0,1,5,15)" fill="rgb(0,153,153)" text-rendering="geometricPrecision" shape-rendering="geometricPrecision" stroke="rgb(0,153,153)" stroke-miterlimit="1.45">
      <path fill="none" d="M217.5532 162.0625 L404.5683 162.0625 L394.3683 202.0625 L207.3532 202.0625 Z" clip-path="url(#clipPath2)"/>
      <text x="243.699" y="186.1641" clip-path="url(#clipPath2)" fill="white" font-family="'Roboto'" stroke="none" xml:space="preserve">Set blockColor to green</text>
    </g>
    <g fill="url(#linearGradient4)" text-rendering="geometricPrecision" shape-rendering="geometricPrecision" transform="matrix(1,0,0,1,5,15)" stroke="url(#linearGradient4)">
      <path d="M444.7683 162.0625 L606.7936 162.0625 L596.5936 202.0625 L434.5683 202.0625 Z" stroke="none" clip-path="url(#clipPath2)"/>
    </g>
    <g stroke-linecap="butt" transform="matrix(1,0,0,1,5,15)" fill="rgb(0,153,153)" text-rendering="geometricPrecision" shape-rendering="geometricPrecision" stroke="rgb(0,153,153)" stroke-miterlimit="1.45">
      <path fill="none" d="M444.7683 162.0625 L606.7936 162.0625 L596.5936 202.0625 L434.5683 202.0625 Z" clip-path="url(#clipPath2)"/>
      <text x="464.8909" y="186.1641" clip-path="url(#clipPath2)" fill="white" font-family="'Roboto'" stroke="none" xml:space="preserve">Set blockColor to red</text>
    </g>
    <g fill="url(#linearGradient5)" text-rendering="geometricPrecision" shape-rendering="geometricPrecision" transform="matrix(1,0,0,1,5,15)" stroke="url(#linearGradient5)">
      <path d="M20.2002 162.0625 L177.3529 162.0625 L167.1529 202.0625 L10.0002 202.0625 Z" stroke="none" clip-path="url(#clipPath2)"/>
    </g>
    <g stroke-linecap="butt" transform="matrix(1,0,0,1,5,15)" fill="rgb(0,153,153)" text-rendering="geometricPrecision" shape-rendering="geometricPrecision" stroke="rgb(0,153,153)" stroke-miterlimit="1.45">
      <path fill="none" d="M20.2002 162.0625 L177.3529 162.0625 L167.1529 202.0625 L10.0002 202.0625 Z" clip-path="url(#clipPath2)"/>
      <text x="35.1707" y="186.1641" clip-path="url(#clipPath2)" fill="white" font-family="'Roboto'" stroke="none" xml:space="preserve">Set blockColor to blue</text>
    </g>
    <g fill="url(#linearGradient6)" text-rendering="geometricPrecision" shape-rendering="geometricPrecision" transform="matrix(1,0,0,1,5,15)" stroke="url(#linearGradient6)">
      <path d="M871.6127 162.0625 L1058.3175 162.0625 L1048.1176 202.0625 L861.4127 202.0625 Z" stroke="none" clip-path="url(#clipPath2)"/>
    </g>
    <g stroke-linecap="butt" transform="matrix(1,0,0,1,5,15)" fill="rgb(0,153,153)" text-rendering="geometricPrecision" shape-rendering="geometricPrecision" stroke="rgb(0,153,153)" stroke-miterlimit="1.45">
      <path fill="none" d="M871.6127 162.0625 L1058.3175 162.0625 L1048.1176 202.0625 L861.4127 202.0625 Z" clip-path="url(#clipPath2)"/>
      <text x="874.3358" y="186.1641" clip-path="url(#clipPath2)" fill="white" font-family="'Roboto'" stroke="none" xml:space="preserve">reset blockColor to default color</text>
    </g>
    <g fill="url(#linearGradient7)" text-rendering="geometricPrecision" shape-rendering="geometricPrecision" transform="matrix(1,0,0,1,5,15)" stroke="url(#linearGradient7)">
      <path d="M563.9108 232.0625 L922.2542 232.0625 L904.2955 302.4887 L545.9521 302.4887 Z" stroke="none" clip-path="url(#clipPath2)"/>
    </g>
    <g stroke-linecap="butt" transform="matrix(1,0,0,1,5,15)" fill="rgb(0,153,153)" text-rendering="geometricPrecision" shape-rendering="geometricPrecision" stroke="rgb(0,153,153)" stroke-miterlimit="1.45">
      <path fill="none" d="M563.9108 232.0625 L922.2542 232.0625 L904.2955 302.4887 L545.9521 302.4887 Z" clip-path="url(#clipPath2)"/>
      <text x="571.2448" y="264.3459" clip-path="url(#clipPath2)" fill="white" font-family="'Roboto'" stroke="none" xml:space="preserve">Get the corresponding block character by using getBlockChar</text>
      <text x="669.1373" y="278.4084" clip-path="url(#clipPath2)" fill="white" font-family="'Roboto'" stroke="none" xml:space="preserve"> and inserting blockType</text>
    </g>
    <g fill="url(#linearGradient8)" text-rendering="geometricPrecision" shape-rendering="geometricPrecision" transform="matrix(1,0,0,1,5,15)" stroke="url(#linearGradient8)">
      <path d="M598.5029 332.4887 L879.9034 332.4887 L869.7034 372.4887 L588.3029 372.4887 Z" stroke="none" clip-path="url(#clipPath2)"/>
    </g>
    <g stroke-linecap="butt" transform="matrix(1,0,0,1,5,15)" fill="rgb(0,153,153)" text-rendering="geometricPrecision" shape-rendering="geometricPrecision" stroke="rgb(0,153,153)" stroke-miterlimit="1.45">
      <path fill="none" d="M598.5029 332.4887 L879.9034 332.4887 L869.7034 372.4887 L588.3029 372.4887 Z" clip-path="url(#clipPath2)"/>
      <text x="594.6061" y="349.559" clip-path="url(#clipPath2)" fill="white" font-family="'Roboto'" stroke="none" xml:space="preserve">Return blockColor, the previously received character </text>
      <text x="681.2955" y="363.6215" clip-path="url(#clipPath2)" fill="white" font-family="'Roboto'" stroke="none" xml:space="preserve">and an empty string</text>
    </g>
    <g fill="url(#linearGradient9)" text-rendering="geometricPrecision" shape-rendering="geometricPrecision" transform="matrix(1,0,0,1,5,15)" stroke="url(#linearGradient9)">
      <circle r="20" clip-path="url(#clipPath2)" cx="734.1032" cy="20" stroke="none"/>
    </g>
    <g text-rendering="geometricPrecision" stroke-miterlimit="1.45" shape-rendering="geometricPrecision" transform="matrix(1,0,0,1,5,15)" stroke-linecap="butt">
      <circle fill="none" r="20" clip-path="url(#clipPath2)" cx="734.1032" cy="20"/>
      <text x="721.3297" y="24.1016" clip-path="url(#clipPath2)" fill="white" font-family="'Roboto'" stroke="none" xml:space="preserve">Start</text>
    </g>
    <g fill="url(#linearGradient10)" text-rendering="geometricPrecision" shape-rendering="geometricPrecision" transform="matrix(1,0,0,1,5,15)" stroke="url(#linearGradient10)">
      <path d="M734.1031 74 L832.9294 94 L734.1031 114 L635.277 94 Z" stroke="none" clip-path="url(#clipPath2)"/>
    </g>
    <g stroke-linecap="butt" transform="matrix(1,0,0,1,5,15)" fill="rgb(0,153,153)" text-rendering="geometricPrecision" shape-rendering="geometricPrecision" stroke="rgb(0,153,153)" stroke-miterlimit="1.45">
      <path fill="none" d="M734.1031 74 L832.9294 94 L734.1031 114 L635.277 94 Z" clip-path="url(#clipPath2)"/>
      <text x="684.6412" y="98.1016" clip-path="url(#clipPath2)" fill="white" font-family="'Roboto'" stroke="none" xml:space="preserve">Match craftedItem</text>
    </g>
    <g stroke-linecap="butt" transform="matrix(1,0,0,1,5,15)" fill="rgb(0,153,153)" text-rendering="geometricPrecision" shape-rendering="geometricPrecision" stroke="rgb(0,153,153)" stroke-miterlimit="1.45">
      <path fill="none" d="M93.6766 202.0625 L93.6766 217.0625 L734.1031 217.0625 L734.1031 224.0332" clip-path="url(#clipPath2)"/>
    </g>
    <g stroke-linecap="butt" transform="matrix(1,0,0,1,5,15)" fill="rgb(0,153,153)" text-rendering="geometricPrecision" shape-rendering="geometricPrecision" stroke="rgb(0,153,153)" stroke-miterlimit="1.45">
      <path d="M734.1031 232.0332 L739.1031 220.0332 L734.1031 223.0332 L729.1031 220.0332 Z" stroke="none" clip-path="url(#clipPath2)"/>
      <path fill="none" d="M305.9607 202.0625 L305.9607 217.0625 L734.1031 217.0625 L734.1031 224.0332" clip-path="url(#clipPath2)"/>
      <path d="M734.1031 232.0332 L739.1031 220.0332 L734.1031 223.0332 L729.1031 220.0332 Z" clip-path="url(#clipPath2)" stroke="none"/>
      <path fill="none" d="M520.681 202.0625 L520.681 217.0625 L734.1031 217.0625 L734.1031 224.0332" clip-path="url(#clipPath2)"/>
      <path d="M734.1031 232.0332 L739.1031 220.0332 L734.1031 223.0332 L729.1031 220.0332 Z" clip-path="url(#clipPath2)" stroke="none"/>
      <path fill="none" d="M734.1031 202.0625 L734.1031 224.0332" clip-path="url(#clipPath2)"/>
      <path d="M734.1031 232.0332 L739.1031 220.0332 L734.1031 223.0332 L729.1031 220.0332 Z" clip-path="url(#clipPath2)" stroke="none"/>
      <path fill="none" d="M959.8651 202.0625 L959.8651 217.0625 L734.1031 217.0625 L734.1031 224.0332" clip-path="url(#clipPath2)"/>
      <path d="M734.1031 232.0332 L739.1031 220.0332 L734.1031 223.0332 L729.1031 220.0332 Z" clip-path="url(#clipPath2)" stroke="none"/>
      <path fill="none" d="M734.1031 302.4887 L734.1031 324.4594" clip-path="url(#clipPath2)"/>
      <path d="M734.1031 332.4594 L739.1031 320.4594 L734.1031 323.4594 L729.1031 320.4594 Z" clip-path="url(#clipPath2)" stroke="none"/>
      <path fill="none" d="M734.1031 40 L734.1031 66" clip-path="url(#clipPath2)"/>
      <path d="M734.1031 74 L739.1031 62 L734.1031 65 L729.1031 62 Z" clip-path="url(#clipPath2)" stroke="none"/>
      <path fill="none" d="M734.1031 114 L734.1031 154.0156" clip-path="url(#clipPath2)"/>
      <path d="M734.1031 162.0156 L739.1031 150.0156 L734.1031 153.0156 L729.1031 150.0156 Z" clip-path="url(#clipPath2)" stroke="none"/>
      <text x="738.1031" y="147.0078" clip-path="url(#clipPath2)" fill="white" font-family="'Roboto'" stroke="none" xml:space="preserve">Iron ore</text>
      <path fill="none" d="M799.9873 100.6839 L799.9873 129 L959.8651 129 L959.8651 154.0302" clip-path="url(#clipPath2)"/>
      <path d="M959.8651 162.0302 L964.8651 150.0302 L959.8651 153.0302 L954.8651 150.0302 Z" clip-path="url(#clipPath2)" stroke="none"/>
      <text x="745.4385" y="130.1641" clip-path="url(#clipPath2)" fill="white" font-family="'Roboto'" stroke="none" xml:space="preserve">DEFAULT</text>
      <path fill="none" d="M635.244 94 L93.6766 94 L93.6766 154.0293" clip-path="url(#clipPath2)"/>
      <path d="M93.6766 162.0293 L98.6766 150.0293 L93.6766 153.0293 L88.6766 150.0293 Z" clip-path="url(#clipPath2)" stroke="none"/>
      <text x="592.2906" y="87.0703" clip-path="url(#clipPath2)" fill="white" font-family="'Roboto'" stroke="none" xml:space="preserve">Stone</text>
      <path fill="none" d="M655.0422 98.0312 L655.0422 129 L305.9607 129 L305.9607 154.0302" clip-path="url(#clipPath2)"/>
      <path d="M305.9607 162.0302 L310.9607 150.0302 L305.9607 153.0302 L300.9607 150.0302 Z" clip-path="url(#clipPath2)" stroke="none"/>
      <text x="659.0422" y="130.1641" clip-path="url(#clipPath2)" fill="white" font-family="'Roboto'" stroke="none" xml:space="preserve">Leaves</text>
      <path fill="none" d="M694.5727 106.0312 L694.5727 144 L520.681 144 L520.681 154.0272" clip-path="url(#clipPath2)"/>
      <path d="M520.681 162.0272 L525.681 150.0272 L520.681 153.0272 L515.681 150.0272 Z" clip-path="url(#clipPath2)" stroke="none"/>
      <text x="698.5727" y="137.2578" clip-path="url(#clipPath2)" fill="white" font-family="'Roboto'" stroke="none" xml:space="preserve">Wood</text>
      <path fill="none" d="M832.9736 94 L1195.6576 94 L1198.1979 154.0364" clip-path="url(#clipPath2)"/>
      <path d="M1198.5361 162.0293 L1203.0243 149.8286 L1198.1556 153.0373 L1193.0332 150.2514 Z" clip-path="url(#clipPath2)" stroke="none"/>
      <text x="845.0544" y="87.0703" clip-path="url(#clipPath2)" fill="white" font-family="'Roboto'" stroke="none" xml:space="preserve">Air</text>
    </g>
  </g>
</svg>
