<?xml version="1.0" encoding="UTF-8"?><svg xmlns="http://www.w3.org/2000/svg" xmlns:xlink="http://www.w3.org/1999/xlink" fill-opacity="1" color-rendering="auto" color-interpolation="auto" text-rendering="auto" stroke="black" stroke-linecap="square" width="661" stroke-miterlimit="10" shape-rendering="auto" stroke-opacity="1" fill="black" stroke-dasharray="none" font-weight="normal" stroke-width="1" height="369" font-family="'Dialog'" font-style="normal" stroke-linejoin="miter" font-size="12px" stroke-dashoffset="0" image-rendering="auto">
  <!--Generated by ySVG 2.6-->
  <defs id="genericDefs"/>
  <g>
    <defs id="defs1">
      <linearGradient x1="121.6401" gradientUnits="userSpaceOnUse" x2="201.6401" y1="0" y2="40" id="linearGradient1" spreadMethod="reflect">
        <stop stop-opacity="1" stop-color="rgb(0,153,153)" offset="0%"/>
        <stop stop-opacity="1" stop-color="rgb(0,153,153)" offset="100%"/>
      </linearGradient>
      <linearGradient x1="52.2734" gradientUnits="userSpaceOnUse" x2="271.0067" y1="158.7012" y2="198.7012" id="linearGradient2" spreadMethod="reflect">
        <stop stop-opacity="1" stop-color="rgb(39,43,52)" offset="0%"/>
        <stop stop-opacity="1" stop-color="rgb(39,43,52)" offset="100%"/>
      </linearGradient>
      <linearGradient x1="80.2734" gradientUnits="userSpaceOnUse" x2="243.0067" y1="228.7012" y2="268.7012" id="linearGradient3" spreadMethod="reflect">
        <stop stop-opacity="1" stop-color="rgb(39,43,52)" offset="0%"/>
        <stop stop-opacity="1" stop-color="rgb(39,43,52)" offset="100%"/>
      </linearGradient>
      <linearGradient x1="38.2734" gradientUnits="userSpaceOnUse" x2="285.0067" y1="298.7012" y2="338.7012" id="linearGradient4" spreadMethod="reflect">
        <stop stop-opacity="1" stop-color="rgb(39,43,52)" offset="0%"/>
        <stop stop-opacity="1" stop-color="rgb(39,43,52)" offset="100%"/>
      </linearGradient>
      <linearGradient x1="10.0001" gradientUnits="userSpaceOnUse" x2="313.2801" y1="70" y2="110" id="linearGradient5" spreadMethod="reflect">
        <stop stop-opacity="1" stop-color="rgb(39,43,52)" offset="0%"/>
        <stop stop-opacity="1" stop-color="rgb(39,43,52)" offset="100%"/>
      </linearGradient>
      <linearGradient x1="301.0068" gradientUnits="userSpaceOnUse" x2="640.7401" y1="158.7012" y2="198.7012" id="linearGradient6" spreadMethod="reflect">
        <stop stop-opacity="1" stop-color="rgb(39,43,52)" offset="0%"/>
        <stop stop-opacity="1" stop-color="rgb(39,43,52)" offset="100%"/>
      </linearGradient>
      <clipPath clipPathUnits="userSpaceOnUse" id="clipPath1">
        <path d="M0 0 L661 0 L661 369 L0 369 L0 0 Z"/>
      </clipPath>
      <clipPath clipPathUnits="userSpaceOnUse" id="clipPath2">
        <path d="M-5 -15 L656 -15 L656 354 L-5 354 L-5 -15 Z"/>
      </clipPath>
    </defs>
    <g fill="url(#linearGradient1)" text-rendering="geometricPrecision" shape-rendering="geometricPrecision" transform="matrix(1,0,0,1,5,15)" stroke="url(#linearGradient1)">
      <circle r="20" clip-path="url(#clipPath2)" cx="161.6401" cy="20" stroke="none"/>
    </g>
    <g text-rendering="geometricPrecision" stroke-miterlimit="1.45" shape-rendering="geometricPrecision" transform="matrix(1,0,0,1,5,15)" stroke-linecap="butt">
      <circle fill="none" r="20" clip-path="url(#clipPath2)" cx="161.6401" cy="20"/>
      <text x="148.8666" y="24.1016" clip-path="url(#clipPath2)" fill="white" font-family="'Roboto'" stroke="none" xml:space="preserve">Start</text>
    </g>
    <g fill="url(#linearGradient2)" text-rendering="geometricPrecision" shape-rendering="geometricPrecision" transform="matrix(1,0,0,1,5,15)" stroke="url(#linearGradient2)">
      <path d="M52.2734 158.7012 L271.0067 158.7012 L271.0067 198.7012 L52.2734 198.7012 Z" stroke="none" clip-path="url(#clipPath2)"/>
    </g>
    <g stroke-linecap="butt" transform="matrix(1,0,0,1,5,15)" fill="rgb(0,153,153)" text-rendering="geometricPrecision" shape-rendering="geometricPrecision" stroke="rgb(0,153,153)" stroke-miterlimit="1.45">
      <path fill="none" d="M52.2734 158.7012 L271.0067 158.7012 L271.0067 198.7012 L52.2734 198.7012 Z" clip-path="url(#clipPath2)"/>
      <text x="64.6821" y="182.8027" clip-path="url(#clipPath2)" fill="white" font-family="'Roboto'" stroke="none" xml:space="preserve">Remove wood (1) from the inventory</text>
    </g>
    <g fill="url(#linearGradient3)" text-rendering="geometricPrecision" shape-rendering="geometricPrecision" transform="matrix(1,0,0,1,5,15)" stroke="url(#linearGradient3)">
      <path d="M80.2734 228.7012 L243.0067 228.7012 L243.0067 268.7012 L80.2734 268.7012 Z" stroke="none" clip-path="url(#clipPath2)"/>
    </g>
    <g stroke-linecap="butt" transform="matrix(1,0,0,1,5,15)" fill="rgb(0,153,153)" text-rendering="geometricPrecision" shape-rendering="geometricPrecision" stroke="rgb(0,153,153)" stroke-miterlimit="1.45">
      <path fill="none" d="M80.2734 228.7012 L243.0067 228.7012 L243.0067 268.7012 L80.2734 268.7012 Z" clip-path="url(#clipPath2)"/>
      <text x="89.3383" y="252.8027" clip-path="url(#clipPath2)" fill="white" font-family="'Roboto'" stroke="none" xml:space="preserve">Add a stick to the inventory</text>
    </g>
    <g fill="url(#linearGradient4)" text-rendering="geometricPrecision" shape-rendering="geometricPrecision" transform="matrix(1,0,0,1,5,15)" stroke="url(#linearGradient4)">
      <path d="M38.2734 318.7012 Q43.2734 303.7012 58.2734 298.7012 L280.0067 298.7012 Q290.0067 318.7012 280.0067 338.7012 L58.2734 338.7012 Q43.2734 333.7012 38.2734 318.7012" stroke="none" clip-path="url(#clipPath2)"/>
    </g>
    <g stroke-linecap="butt" transform="matrix(1,0,0,1,5,15)" fill="rgb(0,153,153)" text-rendering="geometricPrecision" shape-rendering="geometricPrecision" stroke="rgb(0,153,153)" stroke-miterlimit="1.45">
      <path fill="none" d="M38.2734 318.7012 Q43.2734 303.7012 58.2734 298.7012 L280.0067 298.7012 Q290.0067 318.7012 280.0067 338.7012 L58.2734 338.7012 Q43.2734 333.7012 38.2734 318.7012" clip-path="url(#clipPath2)"/>
      <text x="68.4438" y="322.8027" clip-path="url(#clipPath2)" fill="white" font-family="'Roboto'" stroke="none" xml:space="preserve">Print "Crafted Stick." to the console</text>
    </g>
    <g fill="url(#linearGradient5)" text-rendering="geometricPrecision" shape-rendering="geometricPrecision" transform="matrix(1,0,0,1,5,15)" stroke="url(#linearGradient5)">
      <path d="M161.6401 70 L313.2801 90 L161.6401 110 L10.0001 90 Z" stroke="none" clip-path="url(#clipPath2)"/>
    </g>
    <g stroke-linecap="butt" transform="matrix(1,0,0,1,5,15)" fill="rgb(0,153,153)" text-rendering="geometricPrecision" shape-rendering="geometricPrecision" stroke="rgb(0,153,153)" stroke-miterlimit="1.45">
      <path fill="none" d="M161.6401 70 L313.2801 90 L161.6401 110 L10.0001 90 Z" clip-path="url(#clipPath2)"/>
      <text x="54.5629" y="94.1016" clip-path="url(#clipPath2)" fill="white" font-family="'Roboto'" stroke="none" xml:space="preserve">Check if the inventory contains wood (1)</text>
    </g>
    <g fill="url(#linearGradient6)" text-rendering="geometricPrecision" shape-rendering="geometricPrecision" transform="matrix(1,0,0,1,5,15)" stroke="url(#linearGradient6)">
      <path d="M301.0068 178.7012 Q306.0068 163.7012 321.0068 158.7012 L635.7401 158.7012 Q645.7401 178.7012 635.7401 198.7012 L321.0068 198.7012 Q306.0068 193.7012 301.0068 178.7012" stroke="none" clip-path="url(#clipPath2)"/>
    </g>
    <g stroke-linecap="butt" transform="matrix(1,0,0,1,5,15)" fill="rgb(0,153,153)" text-rendering="geometricPrecision" shape-rendering="geometricPrecision" stroke="rgb(0,153,153)" stroke-miterlimit="1.45">
      <path fill="none" d="M301.0068 178.7012 Q306.0068 163.7012 321.0068 158.7012 L635.7401 158.7012 Q645.7401 178.7012 635.7401 198.7012 L321.0068 198.7012 Q306.0068 193.7012 301.0068 178.7012" clip-path="url(#clipPath2)"/>
      <text x="318.6791" y="182.8027" clip-path="url(#clipPath2)" fill="white" font-family="'Roboto'" stroke="none" xml:space="preserve">Print "Insufficient resources to craft Stick." to the console</text>
    </g>
    <g stroke-linecap="butt" transform="matrix(1,0,0,1,5,15)" fill="rgb(0,153,153)" text-rendering="geometricPrecision" shape-rendering="geometricPrecision" stroke="rgb(0,153,153)" stroke-miterlimit="1.45">
      <path fill="none" d="M161.6401 198.7012 L161.6401 220.6719" clip-path="url(#clipPath2)"/>
    </g>
    <g stroke-linecap="butt" transform="matrix(1,0,0,1,5,15)" fill="rgb(0,153,153)" text-rendering="geometricPrecision" shape-rendering="geometricPrecision" stroke="rgb(0,153,153)" stroke-miterlimit="1.45">
      <path d="M161.6401 228.6719 L166.6401 216.6719 L161.6401 219.6719 L156.6401 216.6719 Z" stroke="none" clip-path="url(#clipPath2)"/>
      <path fill="none" d="M161.6401 268.7012 L161.6401 290.6719" clip-path="url(#clipPath2)"/>
      <path d="M161.6401 298.6719 L166.6401 286.6719 L161.6401 289.6719 L156.6401 286.6719 Z" clip-path="url(#clipPath2)" stroke="none"/>
      <path fill="none" d="M161.6401 40 L161.6401 62" clip-path="url(#clipPath2)"/>
      <path d="M161.6401 70 L166.6401 58 L161.6401 61 L156.6401 58 Z" clip-path="url(#clipPath2)" stroke="none"/>
      <path fill="none" d="M161.6401 110 L161.6401 150.6536" clip-path="url(#clipPath2)"/>
      <path d="M161.6401 158.6536 L166.6401 146.6536 L161.6401 149.6536 L156.6401 146.6536 Z" clip-path="url(#clipPath2)" stroke="none"/>
      <text x="133.4467" y="133.4215" clip-path="url(#clipPath2)" fill="white" font-family="'Roboto'" stroke="none" xml:space="preserve">True</text>
      <path fill="none" d="M313.2881 90 L470.8734 90 L470.8734 150.6676" clip-path="url(#clipPath2)"/>
      <path d="M470.8734 158.6676 L475.8734 146.6676 L470.8734 149.6676 L465.8734 146.6676 Z" clip-path="url(#clipPath2)" stroke="none"/>
      <text x="325.4188" y="83.0703" clip-path="url(#clipPath2)" fill="white" font-family="'Roboto'" stroke="none" xml:space="preserve">False</text>
    </g>
  </g>
</svg>
